<svg version="1.2" xmlns="http://www.w3.org/2000/svg" viewBox="0 0 616 616" width="616" height="616">
	<title>tanstack-query-logo</title>
	<style>
		.s0 { fill: #ff9b71 } 
		.s1 { fill: #ffa872 } 
		.s2 { fill: #ff8e72 } 
		.s3 { fill: #feb47a } 
		.s4 { fill: #fdc789 } 
		.s5 { fill: #ff9971 } 
		.s6 { fill: #fd8373 } 
		.s7 { fill: #fdbd81 } 
		.s8 { fill: #baeed5 } 
		.s9 { fill: #acebdd } 
		.s10 { fill: #fea471 } 
		.s11 { fill: #02cee1 } 
		.s12 { fill: #aac500 } 
		.s13 { fill: #7dab00 } 
		.s14 { fill: #9ee7e4 } 
		.s15 { fill: #fd8573 } 
		.s16 { fill: #c8f1ce } 
		.s17 { fill: #9fbf00 } 
		.s18 { fill: #afc800 } 
		.s19 { fill: #b4ca00 } 
		.s20 { fill: #c2d200 } 
		.s21 { fill: #ffba01 } 
		.s22 { fill: #bace00 } 
		.s23 { fill: #90e3eb } 
		.s24 { fill: #dbe000 } 
		.s25 { fill: #cff4cb } 
		.s26 { fill: #73a600 } 
		.s27 { fill: #cad700 } 
		.s28 { fill: #00a7b7 } 
		.s29 { fill: #8cb300 } 
		.s30 { fill: #feae00 } 
		.s31 { fill: #6fa300 } 
		.s32 { fill: #98ba00 } 
		.s33 { fill: #d0da00 } 
		.s34 { fill: #93b700 } 
		.s35 { fill: #fbde9b } 
		.s36 { fill: #d6dd00 } 
		.s37 { fill: #fae8a3 } 
		.s38 { fill: #feb077 } 
		.s39 { fill: #f4fcb6 } 
		.s40 { fill: #85af00 } 
		.s41 { fill: #fcd393 } 
		.s42 { fill: #82ddee } 
		.s43 { fill: #015266 } 
		.s44 { fill: #e0f8c2 } 
		.s45 { fill: #fea500 } 
		.s46 { fill: #ecfbbb } 
		.s47 { fill: #d6f6c7 } 
		.s48 { fill: #ffb501 } 
		.s49 { fill: #fdc303 } 
		.s50 { fill: #faf3ac } 
		.s51 { fill: #f8fbb2 } 
		.s52 { fill: #007681 } 
		.s53 { fill: #669d00 } 
		.s54 { fill: #ff8e04 } 
		.s55 { fill: #703c02 } 
		.s56 { fill: #f22120 } 
		.s57 { fill: #fc0979 } 
		.s58 { fill: #f91060 } 
		.s59 { fill: #318b02 } 
		.s60 { fill: #fe6504 } 
		.s61 { fill: #ff7702 } 
		.s62 { fill: #fe7d72 } 
		.s63 { fill: #880809 } 
		.s64 { fill: #e6e600 } 
		.s65 { fill: #edea00 } 
		.s66 { fill: #a5c200 } 
		.s67 { fill: #b35d00 } 
		.s68 { fill: #aa5800 } 
		.s69 { fill: #9f5300 } 
		.s70 { fill: #934d00 } 
		.s71 { fill: #874800 } 
		.s72 { fill: #7b4200 } 
		.s73 { fill: #faeba5 } 
		.s74 { fill: #6bd235 } 
		.s75 { fill: #7de846 } 
		.s76 { fill: #73dc3d } 
		.s77 { fill: #45a514 } 
		.s78 { fill: #3c9a0c } 
		.s79 { fill: #48a816 } 
		.s80 { fill: #59bc25 } 
		.s81 { fill: #50b21d } 
		.s82 { fill: #62c82e } 
	</style>
	<path class="s0" d="m591.6 325c-1.2 10.7-2.4 21.5-4.2 32.6-83 0.4-165.5 0.4-247.9 0.4-2.8 0-5.6 0.6-8.7 0.8-0.5-0.5-0.7-0.9-0.9-1.6-1.4-1.3-2.7-2.2-4.3-3.3-2.9-2.7-5.4-5.3-8.2-7.6-3.1-2.7-6.4-2.5-9.3 0.3-2.8 2.6-2.5 5.6-0.1 8.4 1.3 1.5 2.7 2.9 3.8 4.7-1.8 0.7-3.5 1.2-5.2 1.3-9.4 0.1-18.8 0.1-28.3-0.1-3.2-12.2-6.2-24.1-8.8-35.9 107.7 0 214.9 0 322.1 0z"/>
	<path class="s1" d="m591.7 324.5c-107.3 0.5-214.5 0.5-322.4 0.2-2.7-8.8-4.7-17.2-6.2-25.6 7.2-0.1 13.9-0.1 20.6-0.3 8.1-0.2 16.1-0.6 24.2-0.7 2.8-0.1 5.6 0.6 8.3 0.6 8.1-0.1 16.1-0.6 24.2-0.5 7.3 0 14.7 0.7 22.1 0.7 7.7 0 15.4-0.6 23.1-0.9 1.3 0 2.7 0.3 4 0.4 7.4 0.1 14.7 0.5 22.1 0.4 8.1-0.1 16.1-0.6 24.2-0.7 2.7-0.1 5.5 0.6 8.3 0.6 8.1-0.1 16.1-0.6 24.1-0.6 7.4 0.1 14.8 0.8 22.2 0.8 7.7 0 15.4-0.6 23.1-0.9 1.1 0 2.3 0.2 3.5 0.2 7.4 0.3 14.7 0.7 22.1 0.7 8-0.1 16.1-0.7 24.1-0.8 9.5-0.2 19-0.1 28.5-0.1 0 8.7 0 17.4-0.1 26.5z"/>
	<path class="s2" d="m331.1 359c2.8-0.4 5.6-1 8.4-1 82.4 0 164.9 0 247.8 0-1.7 8.8-3.9 17.5-6.7 26.6-54.3 0.4-108 0.4-161.7 0.5-2.7 0-5.3 1.3-8.3 1.9-2.4-0.4-4.4-0.8-6.5-1.4-1.3-3.2-2.8-2.6-4.8-0.6-5.3-0.7-10.2-1.4-15.3-2.4-1.5-0.4-2.9-0.5-4.7-0.6-5.3-0.7-10.3-1.4-15.3-2.4-1.5-0.4-2.9-0.5-4.7-0.7-3.3-0.5-6.2-0.9-9.3-1.6-2.5-2.7-4.8-5.2-7.1-8.1-0.5-4-2.4-3.6-4.8-2.5-2.4-2.8-4.7-5.3-7-7.7z"/>
	<path class="s3" d="m591.9 297.6c-9.6 0.4-19.1 0.3-28.6 0.5-8 0.1-16.1 0.7-24.1 0.8-7.4 0-14.7-0.4-22.1-0.7-1.2 0-2.4-0.2-3.5-0.2-7.7 0.3-15.4 0.9-23.1 0.9-7.4 0-14.8-0.7-22.2-0.8-8 0-16 0.5-24.1 0.6-2.8 0-5.6-0.7-8.3-0.6-8.1 0.1-16.1 0.6-24.2 0.7-7.4 0.1-14.7-0.3-22.1-0.4-1.3-0.1-2.7-0.4-4-0.4-7.7 0.3-15.4 0.9-23.1 0.9-7.4 0-14.8-0.7-22.1-0.7-8.1-0.1-16.1 0.4-24.2 0.5-2.7 0-5.5-0.7-8.3-0.6-8.1 0.1-16.1 0.5-24.2 0.7-6.7 0.2-13.4 0.2-20.8 0-2-6.4-3.3-12.5-4-18.7 25.5 0 50.5 0 75.5-0.2 1.9 0 3.7-1.1 6-1.7 3 0.5 5.6 1.1 8.7 1.7 80 0 159.5 0.1 239 0.1 0.9 0 1.7-0.1 2.5-0.2 0.5 5.8 0.9 11.5 1.3 17.8z"/>
	<path class="s2" d="m36.6 387.1c-2.2-8.7-4.3-17.5-6-26.7 68.4-0.4 136.4-0.4 204.4 0.1 0 9.1 0 17.8-0.5 26.5-43.2 0-85.8 0-128.4 0-23.2 0-46.4 0.1-69.5 0.1z"/>
	<path class="s4" d="m583.8 241c1.4 6.7 2.9 13.4 3.8 20.6-78.5 0.4-156.4 0.4-234.3 0.4-2.6 0-5.3 0.2-8.1-0.1-2.5-7.2-4.8-14-6.7-20.9 51 0 101.5 0 152.1 0 2.8 0 5.6-0.7 8.5-0.7 3.1 4.7 6.6 4.7 10.9 1.6 12.1 0.1 23.6 0.1 35.3 0.4 0.3 1.8 0.4 3.3 0.5 4.8 0.2 3.4 2.1 5.6 5.5 5.7 3.6 0.1 5.6-2.2 5.8-5.9 0.1-2 0.1-4 0.6-5.9 9 0 17.6 0 26.1 0z"/>
	<path class="s5" d="m234.9 360c-67.9 0-135.9 0-204.3 0-1.6-8.7-2.8-17.3-3.5-26.5 45.4-0.5 90.2-0.5 135.3-0.3 2.2 5.9 4.3 11.5 6.5 17.8 2.5-3.6 4.4-6.3 6.7-9 19.8 0 39.2 0 58.5 0.5 0.3 6.1 0.6 11.8 0.8 17.5z"/>
	<path class="s6" d="m36.6 387.5c23.1-0.4 46.3-0.5 69.5-0.5 42.6 0 85.2 0 128.4 0.5 0.2 9.4-0.1 18.4-0.8 27.5-9.5 4.4-18.6 8.6-28.1 12.9-1.4 0.4-2.4 0.8-3.8 1-8-3.7-15.5-7.6-23.4-10.6-44-16.9-89.3-20.7-135.6-12.2-2.1-6.1-4.1-12.1-6.2-18.6z"/>
	<path class="s7" d="m345.3 262.2c2.7 0 5.4-0.2 8-0.2 77.9 0 155.8 0 234.2 0 1.4 5.6 2.3 11.3 3.2 17.4-0.9 0.5-1.7 0.6-2.6 0.6-79.5 0-159-0.1-239-0.5-1.6-6-2.7-11.6-3.8-17.3z"/>
	<path class="s8" d="m127.8 90.9c6.5-4.9 13-9.9 19.9-14.6 2.2 0.7 4 1.6 5.8 1.6 96.1 0.1 192.2 0.1 288.4 0.5-0.2 4.8-0.5 9.2-1.2 13.6-4.6 0-8.7 0.2-12.8-0.1-1.7-0.1-3.4-1.4-5-2.5-0.3-5.8-1.9-7.5-7.1-7.6-2.2 0-4.5 0.2-7.3 0.2-4.1-0.1-7.8 0-12-0.1-2.7-0.1-5-0.2-7.3-0.1-5.9 0.2-8 3.4-6.5 9.2-2.9 0.4-5.4 1-7.8 1q-119.4 0-238.7 0c-2.8 0-5.6-0.7-8.4-1.1z"/>
	<path class="s9" d="m441.8 78c-96.1 0-192.2 0-288.3-0.1-1.8 0-3.6-0.9-5.5-1.7 6.7-4.8 13.4-9.1 20.7-13.2 3.2 0.8 5.9 1.9 8.6 1.9 86.1 0.1 172.3 0.1 258.4 0.1 2.7 0 5.3 0.2 7.9 0.7-0.6 4.4-1.2 8.3-1.8 12.3z"/>
	<path class="s10" d="m162.1 333c-44.8 0-89.6 0-134.9 0.1-1-8.8-1.4-17.5-1.3-26.7 23.7-0.4 46.7-0.3 69.8-0.5 2.5 0 4.9-1.3 7.7-1.9 0.8 0 1.3 0.1 2.1 0.2 2.3 0.4 4.3 0.8 6.2 0.8 14.4 0 28.8 0 43.3 0.4 2.5 9.4 4.8 18.5 7.1 27.6z"/>
	<path class="s11" d="m42.8 406.4c46.3-8.8 91.6-5 135.6 11.9 7.9 3 15.4 6.9 23.2 10.9-7.8 5.3-15.8 10.2-24.1 14.9-32.3-14-65.8-19.5-100.5-17.8-8.1 0.4-16.1 1.9-24.2 3-3.3-7.5-6.6-15-10-22.9z"/>
	<path class="s11" d="m575 405.6c-3.1 7.4-6.2 14.8-10 22.5-18.1-1.8-35.5-2.8-53-1.3-24.4 2.1-47.8 7.6-70.6 17.4-8.2-5.1-16.1-10.1-23.7-15.2 5.7-2.9 10.9-6.2 16.5-8.2 13.7-4.8 27.7-9 41.9-13.4 33.1-6.9 65.9-7.5 98.9-1.8z"/>
	<path class="s12" d="m422.1 568.3c-5.7 2.4-11.4 4.8-17.7 6.8-3.1-2-5.5-4-8.3-5.5q-29.3-15.5-58.7-30.9c-31.7-16.6-63.5-33.1-95.2-49.6-13.9-7.2-27.7-14.5-41.5-21.8-1.8-1-3.2-2.9-4.7-4.6 0-0.2 0-0.7 0.4-0.7 4.8-2.7 9.2-5.3 13.7-7.6 3.5 2.7 6.9 5.4 10.6 7.4 20.7 11 41.5 21.8 62.3 32.7 31.6 16.5 63.2 32.9 94.7 49.4q20.6 10.7 41.2 21.6c1.2 0.6 2.1 1.9 3.2 2.8z"/>
	<path class="s13" d="m330 591c-10 0.3-20 0.7-30.6 0.6-1.7-1.5-2.9-2.7-4.2-3.5q-26-13.8-52.1-27.5c-29.3-15.4-58.6-30.7-88-46-9.9-5.2-10-5-2.9-13.4 2.9-3.3 2.5-5.7-1.5-7.8-4.1-2.3-8.3-4.4-12.3-6.8-1.4-0.8-2.3-2.4-3.3-4 1-1.4 2-2.6 3.2-3.8 2.9-3 5.5-5.7 8.4-8.6 1.3-0.9 2.2-1.6 3.4-2.1 5.2 3.3 10.5 6 15.3 9.2 2 1.3 3.1 3.8 4.6 6 0 0.2 0 0.7-0.3 0.8-2.4 2.1-4.6 4-7 6.1-7.3 6.7-7.1 7.4 1.1 11.7 8.4 4.4 16.6 9.1 25 13.5 32 16.7 64 33.3 96 50 13.6 7.1 27.2 14.2 40.6 21.4 1.8 1 3.1 2.8 4.6 4.2z"/>
	<path class="s14" d="m443.7 65.3c-2.7-0.1-5.3-0.3-8-0.3-86.1 0-172.3 0-258.4-0.1-2.7 0-5.4-1.1-8.3-2 7.9-4.5 16.1-8.7 25-12.7 3 0.3 5.3 0.8 7.6 0.8 62.4 0 124.9 0 187.6 0.3 2.6 5.2 7.5 4.5 12 5.5 3.1 0.7 5.9 1.2 9 1.9 2.1 0.5 3.9 0.9 5.7 1.3 8.6 1.6 10.8-0.3 10.1-8.9 6 3.1 12 6.2 18.2 10-0.1 1.8-0.3 3-0.5 4.2z"/>
	<path class="s15" d="m575.2 405.2c-33.2-5.3-66-4.7-99.5 2-3.1-0.9-5.5-2.1-7.8-2.1-19.2-0.2-38.3 0-57.5-0.2-1.8 0-3.6-1.3-5.3-2.2 0.9-1 1.7-1.7 2.9-2.5 7.1-3.1 8-7.8 3-13.2 2.6-0.6 5.2-1.9 7.9-1.9 53.7-0.1 107.4-0.1 161.5-0.1-1.3 6.6-3.2 13.3-5.2 20.2z"/>
	<path class="s16" d="m422.9 89.7c1.6 0.8 3.3 2.1 5 2.2 4.1 0.3 8.2 0.1 12.9 0.5 0.8 3.5 1 6.5 0.7 9.6-106.2 0-211.9 0-317.7-0.1-2.3 0-4.6-0.8-7-1.3 3.5-3.2 7-6.3 10.7-9.5 3.1 0.2 5.9 0.9 8.7 0.9q119.3 0 238.7 0c2.4 0 4.9-0.6 8.1-0.8 5.2 0.7 9.6 1.3 14.5 1.9 4.1 0.1 7.8 0 11.9 0 5.1-0.1 10.2 1.6 13.5-3.4z"/>
	<path class="s17" d="m196 463c1.5 1.4 2.9 3.3 4.7 4.3 13.8 7.3 27.6 14.6 41.5 21.8 31.7 16.5 63.5 33 95.2 49.6q29.4 15.4 58.7 30.9c2.8 1.5 5.2 3.5 7.9 5.6-5.6 2.2-11.4 4.1-17.6 5.6-1.6-1.4-2.6-2.8-4-3.5-8.4-4.5-16.8-8.8-25.2-13.2q-32.1-16.8-64.2-33.6c-9.4-4.9-18.7-10-28.1-14.9-12.8-6.8-25.6-13.6-38.4-20.3-12.5-6.5-25.1-12.8-37.6-19.5-1.7-0.9-2.6-3.2-3.7-5.1 3.7-2.7 7.3-5.2 10.8-7.7z"/>
	<path class="s18" d="m507.3 510.4c-6.2 5.8-12.4 11.6-19.1 17.2-3.3-3.7-6.1-7.2-9.1-11-7.6-12.7-18.5-22-29.2-31.9-28.2-26.9-60.8-45.1-99.2-52.9-3.5-1-6.6-1.9-9.7-3.1-1.5-1.7-2.7-3.4-4.3-4.3-9.2-4.9-18.6-9.5-27.8-14.5-4.2-2.3-8-5.1-11.5-7.8 2.5-0.2 4.5-0.3 6.9-0.4 2.5 0 4.6-0.1 7.1-0.1 5.5 0.6 10.6 1.1 15.7 1.9 3 2.2 5.7 4.3 8.8 5.9 30.3 15.9 60.6 31.7 90.9 47.5 11.5 6 22.9 12.1 34.4 18.2 6.4 3.4 12.8 6.9 19.4 10.1 1.6 0.7 4.1 3.5 5.8-0.4 4.7 5.2 9.1 10.3 13.5 15.6 2.6 3.6 5 6.8 7.4 10z"/>
	<path class="s19" d="m422.5 568.3c-1.5-0.9-2.4-2.2-3.6-2.8q-20.6-10.9-41.2-21.6c-31.5-16.5-63.1-32.9-94.7-49.4-20.8-10.9-41.6-21.7-62.3-32.7-3.7-2-7.1-4.7-10.3-7.6 4.4-2.4 8.5-4.3 12.6-5.9 1 1.3 1.7 2.5 2.8 3q24.6 13.2 49.3 26.3 30.3 15.9 60.6 31.7c29.7 15.6 59.5 31.1 89.3 46.7 3.5 1.9 6.8 4.1 10.2 6.1-4.1 2-8.2 4.1-12.7 6.2z"/>
	<path class="s20" d="m458.4 549.2c-3.6 2.2-7.2 4.4-11.4 6.6-13.9-7.1-27.2-14.1-40.4-21-24.3-12.7-48.6-25.2-72.8-37.9-14.1-7.5-28.1-15.2-42.2-22.6-17.2-9-34.5-17.9-51.7-26.9-2.2-1.2-4-2.9-5.7-4.7 4.7-1.7 9.2-3.2 14-4.6 1.9 1.3 3.5 2.6 5.2 3.6 16.9 9 33.8 18 50.7 26.8 30.4 16 60.8 31.8 91.2 47.6 9 4.8 17.8 9.7 26.8 14.4 12.1 6.3 24.2 12.4 36.3 18.7z"/>
	<path class="s21" d="m482.1 84.9c13.6 10.1 26.1 21.3 36.5 34.9-0.9 0.7-1.5 1.1-2.1 1.1q-10.6 0.1-21.2 0.1c-7.9 0-15.7 0.1-23.6 0-5.3 0-8.5 3.1-6.6 7 5.6 12.4 13.2 23.4 24.1 32.3 3.7 3.1 7.2 5.9 10.8 9.1-1.3 1.1-2.5 2.4-3.8 2.5-3.1 0.3-6.3-0.1-9.4 0.2-1.3 0.1-2.6 1.3-4.2 2-6-5.8-11.7-11.5-17.5-17.5-4.2-6.8-8.2-13.2-12.4-19.9-1.4-3.2-2.6-5.9-4-9-0.3-1.4-0.6-2.4-0.6-3.8 1.8-0.9 3.5-1.9 5.1-1.8 4.6 0.4 6.4-1.2 5.8-5.8-0.8-7.4-1.6-14.8-1.9-22.2-0.3-7.2 0.8-8 7.8-8.1 5.8-0.2 11.5-0.7 17.2-1.1z"/>
	<path class="s22" d="m234 443c1.9 1.5 3.7 3.2 5.9 4.4 17.2 9 34.5 17.9 51.7 26.9 14.1 7.4 28.1 15.1 42.2 22.6 24.2 12.7 48.5 25.2 72.8 37.9 13.2 6.9 26.5 13.9 40 21-3.3 2.2-7 4.2-11 6.3-3.8-2-7.1-4.2-10.6-6.1-29.8-15.6-59.6-31.1-89.3-46.7q-30.3-15.8-60.6-31.7-24.7-13.1-49.3-26.3c-1.1-0.5-1.8-1.7-2.6-3.3 2.4-1.7 4.6-2.9 7.1-4.2 1.4-0.3 2.6-0.6 3.7-0.8z"/>
	<path class="s23" d="m388.9 51q-93.6 0-187.3 0c-2.3 0-4.6-0.5-7.3-0.9 11.6-4.6 23.7-9.1 36.3-13.3 1.2 0.6 1.8 1.1 2.4 1.1 6.8 0.3 13.7 0.6 20.5 0.7 5.5 0.1 11-0.1 16.6-0.1 6.9 0 13.9 0 20.9 0 6.4 0 12.7 0 19 0 6.7-0.1 13.4-0.3 20-0.3 6.5 0 13 0.4 19.5 0.4 7.3 0.1 14.6 0.3 21.9 0 5.3-0.3 10.5-1.3 15.8-2 10.2 3.5 20.4 7.1 30.3 11.1-3 0-5.7-0.4-8.8-1-3.1-0.7-5.9-1.2-9.1-1.8-7.7-1.9-9.8-0.6-10.7 6.1z"/>
	<path class="s24" d="m479.2 516.9c2.9 3.5 5.7 7 8.7 10.8-1.9 2.1-4 3.8-6.6 5.3-1.9-1.3-3.3-2.4-4.9-3.3-9.8-5.2-19.7-10.3-29.6-15.5-29.2-15.3-58.3-30.7-87.5-46-22.7-11.9-45.4-23.7-68.1-35.7-1.4-0.8-2.1-2.9-2.7-4.4 6.4-0.4 12.5-0.8 18.7-1.2 0.5 0.1 0.6 0.1 0.9 0.5 1.5 1.6 2.9 3 4.6 3.9 16.9 8.9 33.9 17.6 50.8 26.5q37.8 19.8 75.6 39.7c7.6 4.1 15 8.5 22.8 12.3 5.6 2.8 11.5 4.8 17.3 7.1z"/>
	<path class="s25" d="m116.5 100.7c2.7 0.4 5 1.2 7.3 1.2 105.8 0.1 211.5 0.1 317.8 0.5 0.9 2.4 1.2 4.5 1 6.6-52.5 0-104.6 0-156.6 0.1-2 0-4 1.2-6.4 1.8-2.5 0-4.6 0-6.7-0.4-2.2-0.8-4.2-1.5-6.3-1.5-49.9 0-99.9 0-149.9-0.1-2.2 0-4.5-1.2-6.7-1.9 2.1-2.1 4.1-4.1 6.5-6.3z"/>
	<path class="s26" d="m135 482.9c1.1 1.3 2 2.9 3.4 3.7 4 2.4 8.2 4.5 12.3 6.8 4 2.1 4.4 4.5 1.5 7.8-7.1 8.4-7 8.2 2.9 13.4 29.4 15.3 58.7 30.6 88 46q26.1 13.7 52.1 27.5c1.3 0.8 2.5 2 3.7 3.4-8.3-0.3-16.7-0.9-25.5-2-1.6-1.3-2.6-2.5-3.8-3.2q-37.9-20-75.9-39.9c-14.7-7.8-29.5-15.3-44.1-23.2-3.5-1.9-6.8-4.5-9.9-7-2.1-1.7-3.6-4.2-5.8-5.6-4.8-3.2-9.9-5.9-14.9-9 0.4-0.7 0.6-1.2 1.1-1.8 5.2-5.8 10-11.4 14.9-16.9z"/>
	<path class="s27" d="m458.7 548.9c-12.4-6-24.5-12.1-36.6-18.4-9-4.7-17.8-9.6-26.8-14.4-30.4-15.8-60.8-31.6-91.2-47.6-16.9-8.8-33.8-17.8-50.7-26.8-1.7-1-3.3-2.3-4.9-3.8 4.1-1.9 8.3-3.4 12.6-4.5 1.1 1.3 2 2.6 3.2 3.2 12.1 6.4 24.1 12.8 36.2 19.1 26.6 14 53.3 28.1 80 42 24 12.6 48.1 25 72.1 37.7 4.7 2.5 9 5.9 13.5 8.8-2.4 1.5-4.8 3-7.4 4.7z"/>
	<path class="s28" d="m149.9 467.8c-1 0.8-1.9 1.5-3.6 2.3-15.4-2.3-30-5.3-44.7-6.7-9.8-1-19.8 0.4-29.7 0.7-4.6-7.8-9.2-15.6-13.3-23.7 3.4-0.4 6.4-0.7 9.4-0.7 16.9 0.2 34-0.8 50.7 1.1 16.7 1.9 33.1 6.9 49.4 10.8-6.2 5.6-12.2 10.9-18.2 16.2z"/>
	<path class="s28" d="m559.3 441.1c-4.2 7.2-8.4 14.5-13.3 21.9-16 0.8-31.3 0.8-46.5 2.2-9 0.9-17.7 3.8-26.9 5.7-7.3-6.6-14.4-13.1-21.1-19.7 31.1-10.1 62.6-13.7 94.7-12.1 4.4 0.3 8.7 1.3 13.1 2z"/>
	<path class="s29" d="m163 490c2.1-1.9 4.3-3.8 6.8-5.6 2 1.3 3.3 2.6 4.9 3.4 17.4 9.1 34.8 18 52.2 27.2 19.3 10.2 38.4 20.6 57.6 30.7 23.9 12.6 47.8 24.9 71.7 37.5 1.6 0.8 2.6 2.6 3.9 4-5.4 0.9-10.9 1.8-16.7 2.4-2.4-1.9-4.1-3.8-6.2-4.9-10.2-5.4-20.4-10.6-30.6-15.9-9-4.7-18-9.3-27-14-19.9-10.6-39.8-21.4-59.8-31.9-17.5-9.2-35.2-18.1-52.6-27.5-1.8-0.9-2.8-3.5-4.2-5.4z"/>
	<path class="s30" d="m489 160c-10.7-8.6-18.3-19.6-23.9-32-1.9-3.9 1.3-7 6.6-7 7.9 0.1 15.7 0 23.6 0q10.6 0 21.2-0.1c0.6 0 1.2-0.4 2.3-0.8 2.8 2.3 5.5 4.4 7.6 7.2 6.7 8.8 13.1 17.9 19.2 27.3-4.2 0.4-8.1 0.3-12 0.4-6.6 0.2-13.2 0.9-19.8 0.9-6.5 0-13.1-0.6-19.7-0.9-3.4-0.1-5.5 1.2-5.1 5z"/>
	<path class="s31" d="m118.9 501.8c5.1 2.9 10.2 5.6 15 8.8 2.2 1.4 3.7 3.9 5.8 5.6 3.1 2.5 6.4 5.1 9.9 7 14.6 7.9 29.4 15.4 44.1 23.2q38 19.9 75.9 39.9c1.2 0.7 2.2 1.9 3.3 3.2-15-2.9-30.1-6.1-45.6-9.8-3.6-2.7-6.7-5.2-10.1-7-23.8-12.7-47.7-25.4-71.7-37.8-4.2-2.2-9-3.3-13.4-4.9-6.8-6-13.6-11.9-20.3-18.5 2.5-3.7 4.8-6.7 7.1-9.7z"/>
	<path class="s32" d="m185 471c1.3 1.6 2.2 3.9 3.9 4.8 12.5 6.7 25.1 13 37.6 19.5 12.8 6.7 25.6 13.5 38.4 20.3 9.4 4.9 18.7 10 28.1 14.9q32.1 16.8 64.2 33.6c8.4 4.4 16.8 8.7 25.2 13.2 1.4 0.7 2.4 2.1 3.6 3.5-4 1.5-8 2.6-12.5 3.4-1.5-1.3-2.4-2.6-3.6-3.2q-38.7-20.4-77.3-40.7c-17.3-9.1-34.5-18-51.7-27.1-21.7-11.3-43.3-22.8-64.8-34.5 3.1-2.8 6-5.2 8.9-7.7z"/>
	<path class="s33" d="m466.4 544.2c-4.8-2.9-9.1-6.3-13.8-8.8-24-12.7-48.1-25.1-72.1-37.7-26.7-13.9-53.4-28-80-42-12.1-6.3-24.1-12.7-36.2-19.1-1.2-0.6-2.1-1.9-2.9-3.2 2.5-1 4.6-1.7 7-2.4 2.5-0.3 4.6-0.6 6.6-0.6 1.3 1.8 2.3 3.6 3.8 4.4 7.3 4 14.7 7.8 22 11.6 31.3 16.5 62.6 33 93.9 49.4 18.8 9.9 37.8 19.6 56.7 29.4 7.9 4.1 15.7 8.5 23.6 12.8-2.7 2-5.5 4-8.6 6.2z"/>
	<path class="s34" d="m176 479c21.6 11.4 43.2 22.9 64.9 34.2 17.2 9.1 34.4 18 51.7 27.1q38.6 20.3 77.3 40.7c1.2 0.6 2.1 1.9 3.2 3.3-4.1 1.2-8.1 2.1-12.6 2.9-1.7-1.4-2.7-3.2-4.3-4-23.9-12.6-47.8-24.9-71.7-37.5-19.2-10.1-38.3-20.5-57.6-30.7-17.4-9.2-34.8-18.1-52.2-27.2-1.6-0.8-2.9-2.1-4.5-3.5-0.2-0.3-0.2-0.8 0.1-1.2 2.1-1.6 3.9-2.9 5.7-4.1z"/>
	<path class="s35" d="m569 197c2.7 7 5.5 14.1 7.9 21.7-7.2 0.8-14.1 1-21.2 1.1-5.2-3.8-8-3.1-11.2 2.2-9.7-0.3-19-0.7-28.2-1.3 0-0.8 0.1-1.2 0.3-1.9 1.8-6.8-0.9-11.4-5.6-9.6-2.3 0.8-3.5 4.4-5.4 6.9-0.7 1.5-1.2 2.7-2.1 3.9-4.3 0-8.1 0.1-11.9 0-5.7-0.3-11.4-0.8-16.9-1.5 1.2-2.4 2.3-4.4 3.6-6.7 1.5-2.3 2.7-4.4 4.1-6.8 1.2-1.8 2.2-3.5 3.7-5.1 17.8 0.1 35 0.1 52.3 0 1.5 0 3.1-1.1 5-1.8 8.9-0.4 17.2-0.7 25.6-1.1z"/>
	<path class="s36" d="m475.3 537.9c-8.2-4.2-16-8.6-23.9-12.7-18.9-9.8-37.9-19.5-56.7-29.4-31.3-16.4-62.6-32.9-93.9-49.4-7.3-3.8-14.7-7.6-22-11.6-1.5-0.8-2.5-2.6-3.4-4.4 4.5-1 8.6-1.7 12.6-2.3 1.1 1.5 1.8 3.6 3.2 4.4 22.7 12 45.4 23.8 68.1 35.7 29.2 15.3 58.3 30.7 87.5 46 9.9 5.2 19.8 10.3 29.6 15.5 1.6 0.9 3 2 4.6 3.4-1.7 1.8-3.5 3.3-5.7 4.8z"/>
	<path class="s37" d="m47.7 198.9c2.8-6.2 5.6-12.4 9.1-18.8 25.5-0.1 50.3-0.1 75-0.2 1.4 0 2.8-1 4.5-1.5 3.6 2.2 6.8 4.3 9.6 6.1-7.2 5.3-14.2 10.4-21.5 15.5-25.9-0.4-51.3-0.7-76.7-1.1z"/>
	<path class="s38" d="m103 303.9c-2.4 0.7-4.8 2-7.3 2-23.1 0.2-46.1 0.1-69.6 0.1-0.3-6.8 0-13.6 0.9-20.7 25.5-0.3 50.3-0.3 75.3 0.1 0.3 6.4 0.5 12.4 0.7 18.5z"/>
	<path class="s35" d="m47.4 199.1c25.7 0.2 51.1 0.5 76.8 1.2-4.2 7.1-8.8 13.9-13.8 20.7-6.8 0-13.2 0-19.7-0.1-6.5-0.1-13.1-0.2-19.7-0.4q-15.5-0.2-31.1-0.5c2.4-6.9 4.9-13.8 7.5-20.9z"/>
	<path class="s7" d="m102.1 285c-24.8 0-49.6 0-75-0.1 0.3-7 1.1-14.1 2.4-21.5 6.3-0.4 12.1-0.4 17.8-0.4 1 0 2 0.2 3 0.3 8.1 0.2 16.1 0.5 24.2 0.6 9.1 0.1 18.3 0.1 27.6 0.6 0.1 7.1 0 13.8 0 20.5z"/>
	<path class="s4" d="m102 264c-9.2 0-18.4 0-27.5-0.1-8.1-0.1-16.1-0.4-24.2-0.6-1-0.1-2-0.3-3-0.3-5.7 0-11.5 0-17.7 0 0.9-6.8 2.2-13.7 4.2-20.8 24.1-0.2 47.5-0.1 70.8 0.5-0.9 7.4-1.7 14.3-2.6 21.3z"/>
	<path class="s39" d="m77.1 146c2-2.9 4-5.9 6.8-8.9 42.8-0.1 84.9-0.1 126.9-0.1 2.8 0.1 5.5 0.7 8.2 1.4-3.8 8.9-7.5 17.5-11.2 26.1-0.5-0.5-1.7-1.6-3-2.7-8.7-7.8-18.5-13.3-30.1-15.8-9.8-2-19.2 0-28.9 2-2.7-0.9-5.3-1.9-7.9-1.9-20.2-0.2-40.5-0.1-60.8-0.1z"/>
	<path class="s40" d="m162.7 490.2c1.7 1.7 2.7 4.3 4.5 5.2 17.4 9.4 35.1 18.3 52.6 27.5 20 10.5 39.9 21.3 59.8 31.9 9 4.7 18 9.3 27 14 10.2 5.3 20.4 10.5 30.6 15.9 2.1 1.1 3.8 3 5.7 4.8-3.9 0.8-8 1.2-12.5 1.6-1.9-1.5-3.2-3.3-5-4.3-13.4-7.2-27-14.3-40.6-21.4-32-16.7-64-33.3-96-50-8.4-4.4-16.6-9.1-25-13.5-8.2-4.3-8.4-5-1.1-11.7z"/>
	<path class="s41" d="m104.6 242.2c-23.3-0.1-46.7-0.2-70.6-0.3 1.5-7.2 3.4-14.3 5.7-21.7 10.6 0 21 0.1 31.3 0.3 6.6 0.2 13.2 0.3 19.7 0.4 6.5 0.1 12.9 0.1 19.7 0.5-1.7 7.2-3.7 14-5.8 20.8z"/>
	<path class="s42" d="m386.9 36.4c-5 0.9-10.2 1.9-15.5 2.2-7.3 0.3-14.6 0.1-21.9 0-6.5 0-13-0.4-19.5-0.4-6.6 0-13.3 0.2-20 0.3-6.3 0-12.6 0-19 0-7 0-14 0-20.9 0-5.6 0-11.1 0.2-16.6 0.1-6.8-0.1-13.7-0.4-20.5-0.7-0.6 0-1.2-0.5-2-1.2 33.5-10.3 67.9-13.7 102.8-10 17.7 1.8 35.2 6.2 53.1 9.7z"/>
	<path class="s43" d="m168.3 451.3c-16.5-3.6-32.9-8.6-49.6-10.5-16.7-1.9-33.8-0.9-50.7-1.1-3 0-6 0.3-9.4 0.4-2.2-3.4-4-6.8-5.8-10.5 8.1-1.4 16.1-2.9 24.2-3.3 34.7-1.7 68.2 3.8 100.4 18-1 1.4-2.2 2.3-3.6 3.4-2 1.3-3.8 2.4-5.5 3.6z"/>
	<path class="s43" d="m559.6 440.9c-4.7-0.5-9-1.5-13.4-1.8-32.1-1.6-63.6 2-95 12-3.6-2.4-6.5-4.6-9.5-6.8 22.5-9.9 45.9-15.4 70.3-17.5 17.5-1.5 34.9-0.5 52.7 1.5-1.3 4.1-3.1 8.2-5.1 12.6z"/>
	<path class="s44" d="m91.8 126.9c3-3.6 6.1-7.2 9.9-10.8 3 0.3 5.2 0.9 7.5 0.9 42.9 0 85.8 0 128.6 0 2.5 0 4.9 0.7 7.1 1.3-5.5 3.5-10.8 6.8-16.6 9.9-2.9-0.5-5.3-1.2-7.7-1.2-43 0-85.9-0.1-128.8-0.1z"/>
	<path class="s45" d="m489.2 160.3c-0.6-4.1 1.5-5.4 4.9-5.3 6.6 0.3 13.2 0.9 19.7 0.9 6.6 0 13.2-0.7 19.8-0.9 3.9-0.1 7.8 0 12.1 0 5.9 9.1 11.3 18.2 16.5 27.7-10.8 2.6-21.4 1.6-31.3-1.5-10.6-3.2-20.6-8.1-30.9-12.2-3.6-2.8-7.1-5.6-10.8-8.7z"/>
	<path class="s46" d="m91.5 127.1c43.2-0.2 86.1-0.1 129.1-0.1 2.4 0 4.8 0.7 7.5 1.5-2.8 3.5-5.9 6.5-9 9.5-2.8-0.3-5.5-0.9-8.3-1-42 0-84.1 0-126.6-0.1 2-3.2 4.5-6.5 7.3-9.8z"/>
	<path class="s47" d="m245.1 118c-2.4-0.3-4.8-1-7.3-1-42.8 0-85.7 0-128.6 0-2.3 0-4.5-0.6-7.2-1 2.1-3.1 4.7-6 7.7-8.9 2.5 0.6 4.8 1.8 7 1.8 50 0.1 100 0.1 149.9 0.1 2.1 0 4.1 0.7 5.8 1.6-9.3 2.8-18.3 5.1-27.3 7.4z"/>
	<path class="s48" d="m500 169.4c10.3 3.7 20.3 8.6 30.9 11.8 9.9 3.1 20.5 4.1 31.4 1.8 2.5 4.4 4.6 8.9 6.7 13.6-8.4 0.8-16.7 1.1-26 1.5-9-1.6-17.5-2-25.1-5-10.6-4.1-20.6-10-31-15.5-1.4-1.3-2.7-2.4-3.9-3.5 1.2-0.7 2.5-1.9 3.8-2 3.1-0.3 6.3 0.1 9.4-0.2 1.3-0.1 2.5-1.4 3.8-2.5z"/>
	<path class="s49" d="m443.1 109c-0.3-2.1-0.6-4.2-1-6.6-0.3-3.5-0.5-6.5-0.8-10 0.1-4.8 0.4-9.2 0.6-14 0.5-4.4 1.1-8.3 1.7-12.7 0.3-1.6 0.5-2.8 0.8-4.3 4 1.5 8.2 3 11.8 5.3 8.7 5.7 17.1 11.7 25.8 17.9-5.6 0.7-11.3 1.2-17.1 1.4-7 0.1-8.1 0.9-7.8 8.1 0.3 7.4 1.1 14.8 1.9 22.2 0.6 4.6-1.2 6.2-5.8 5.8-1.6-0.1-3.3 0.9-5.4 1.5-1.2-2.1-2-4.4-2.8-7-0.7-2.8-1.3-5.2-1.9-7.6z"/>
	<path class="s50" d="m136 178.3c-1.4 0.6-2.8 1.6-4.2 1.6-24.7 0.1-49.5 0.1-74.7 0 2.7-5.9 5.8-11.8 9.7-17.7 2.7 0.3 4.8 0.8 7 0.8 14.7 0 29.5 0 44.3 0.3 6 5.3 11.9 10.1 17.9 15z"/>
	<path class="s51" d="m118 163c-14.7 0-29.5 0-44.2 0-2.2 0-4.3-0.5-6.8-1 2.9-5.3 6.2-10.5 9.8-15.8 20.6-0.2 40.9-0.3 61.1-0.1 2.6 0 5.2 1 7.7 2.1-9.2 5.3-18.4 10.1-27.6 14.8z"/>
	<path class="s52" d="m135.1 482.6c-5 5.8-9.8 11.4-15.4 17.2-7.7-0.5-14.7-1.1-21.7-1.8-6.3-7.8-12.6-15.6-18.5-23.7 12.3 0 24.2 0 36.1 0.9 7.5 0.5 14.9 2.4 22.4 3.7-0.9 1.1-1.9 2.3-2.9 3.7z"/>
	<path class="s52" d="m499.8 500.1c-4.3-5-8.7-10.1-13.5-15.6-2-2.1-3.7-3.7-5.1-5.7 6.7-1.2 13-2.6 19.4-3.1 11.8-0.8 23.5-1.2 35.3-1.6 0.7 0 1.5 0.6 2.2 1-6.1 7.6-12.2 15.1-19 22.9-6.9 0.8-13.1 1.4-19.3 2.1z"/>
	<path class="s43" d="m138.3 478.8c-7.8-1.2-15.2-3.1-22.7-3.6-11.9-0.9-23.8-0.9-36.2-1.2-2.7-3.1-5-6.2-7.3-9.6 9.7-0.6 19.7-2 29.5-1 14.7 1.4 29.3 4.4 44.4 6.8-2.2 2.9-4.8 5.6-7.7 8.6z"/>
	<path class="s43" d="m538.4 474.9c-1-0.2-1.8-0.8-2.5-0.8-11.8 0.4-23.5 0.8-35.3 1.6-6.4 0.5-12.7 1.9-19.7 3-3-2.5-5.5-5.1-7.9-7.7 8.8-2 17.5-4.9 26.5-5.8 15.2-1.4 30.5-1.4 46.2-2-2 3.8-4.6 7.7-7.3 11.7z"/>
	<path class="s53" d="m132.2 530.3c4.3 1.3 9.1 2.4 13.3 4.6 24 12.4 47.9 25.1 71.7 37.8 3.4 1.8 6.5 4.3 9.8 6.9-13.8-4.9-27.8-9.5-41.2-15.5-19.3-8.7-36.9-20.3-53.6-33.8z"/>
	<path class="s41" d="m556 220c6.8-0.3 13.7-0.5 20.9-1 2.6 7 4.8 14.1 7 21.6-8.6 0.4-17.2 0.4-26.3 0.1-0.6-0.8-0.6-1.3-0.6-2.1-0.1-3.5-0.2-6.6-0.2-10-0.2-3.2-0.5-5.9-0.8-8.6z"/>
	<path class="s54" d="m409 46.9c2.8 0.4 5.5 0.8 8.6 1.1 2.3 0.5 4.1 1.1 6.4 2.2 1 0.6 1.5 0.7 2.1 0.8 0 0-0.1 0.1-0.1 0.1 0.7 8.6-1.5 10.5-10.1 8.9-1.8-0.4-3.6-0.8-5.7-1.7-0.6-4.2-0.9-7.8-1.2-11.4z"/>
	<path class="s43" d="m98.2 498.3c6.8 0.4 13.8 1 21.2 1.7 0.2 0.4 0 0.9-0.4 1.6-2.4 3.2-4.7 6.2-7.3 9.6-4.6-4-9-8.3-13.5-12.9z"/>
	<path class="s43" d="m499.9 500.4c6.1-1 12.3-1.6 18.9-2.3-3.3 4.1-7.1 8-11.2 12.2-2.7-3.1-5.1-6.3-7.7-9.9z"/>
	<path class="s14" d="m425.9 50.8c-0.4 0.1-0.9 0-1.6-0.4 0.3-0.1 0.8 0.1 1.6 0.4z"/>
	<path class="s55" d="m234 414.9c0.4-9 0.7-18 1-27.4 0-9.2 0-17.9 0-27-0.3-6.2-0.6-11.9-0.8-18.5-0.3-5.6-0.7-10.3-1.1-15.4-1-8.5-2-16.6-3-25-1.1-8.2-2.3-15.9-3.5-24-2.5-13-4.9-25.6-7.4-38.7-0.1-14-0.1-27.5-0.1-41q0.8 0 1.5-0.1c8.5 10.2 17 20.3 25.5 30.8 2.7 11.4 5.4 22.4 8.1 33.8 1.3 6.2 2.7 11.9 4.1 17.7 1.3 6.2 2.6 12.3 4.1 18.7 2.2 8.7 4.2 17.1 6.4 25.9 3.3 12.1 6.3 24 9.5 36.6 0.9 3.1 1.5 5.5 2.1 7.9 2.9 11.1 5.8 22.2 8.2 33.5-2.1 0.1-3.8 0.2-5.5-0.2-2-7.1-4-13.8-6-21-2.1-8.4-4.1-16.5-6.2-24.9-2.3-9.1-4.6-17.8-7.1-26.9-2.3-8.8-4.6-17.3-6.8-26.1-2-9.8-4-19.2-6.1-29-1.9-7.7-3.7-15.1-5.8-22.5-0.4-1.4-2-3.7-3.1-3.7-3.8 0-7.7 0.7-11.5 1.5-0.9 0.2-2.1 2-1.9 2.9 1.3 8.1 2.9 16.1 4.4 24.6 1.7 10.5 3.3 20.6 5 31.1 0.7 9.1 1.4 17.8 2 27 0.4 9.1 0.8 17.8 1.1 27 0 9.1 0 17.8 0 27-0.4 8.1-0.8 15.7-1.5 23.5-2 0.7-3.8 1.3-5.6 1.9z"/>
	<path class="s2" d="m289 402.5q-4.3-16.6-8.6-33.3c-0.6-2.4-1.2-4.8-1.9-7.6 9.3-0.5 18.7-0.5 28.1-0.6 1.7-0.1 3.4-0.6 5.5-1.2 4.7 4.2 8.9 8.7 12.9 13.4-6.4 8.1-12.5 15.9-18.6 23.8-1.1 1.4-1.7 3.1-2.5 4.7-2 0.1-4 0.2-6.9 0.4-3.2 0.1-5.6 0.3-8 0.4z"/>
	<path class="s56" d="m325.2 372.9c-4.2-4.4-8.4-8.9-12.9-13.4-1.6-1.6-3-3-4.3-4.5-2.4-2.8-2.7-5.8 0.1-8.4 2.9-2.8 6.2-3 9.3-0.3 2.8 2.3 5.3 4.9 8.1 7.9-0.5 2.2-1.2 4-1.9 5.7q2.5-0.9 5-1.7c0.5-0.2 0.9-0.5 1.3-0.7 0.2 0.4 0.4 0.8 0.9 1.3 2.6 2.6 4.9 5.1 7.1 8.2-0.6 2.1-1 3.5-1.4 4.9 1.4-0.4 2.9-0.6 4.3-1.1 0.8-0.2 1.4-0.8 2.1-1.2 2.3 2.5 4.6 5 7 8.1-1.6 4.5-3.3 8.4-5.2 12.3-0.8 0-1.2 0-2-0.1-4.4-4.1-8.5-8.1-12.7-12.4-1.7-1.7-3.2-3.2-4.8-4.6z"/>
	<path class="s44" d="m329.9 357.2c-0.4 0.5-0.8 0.8-1.3 1q-2.5 0.8-5 1.7c0.7-1.7 1.4-3.5 2.2-5.5 1.4 0.6 2.7 1.5 4.1 2.8z"/>
	<path class="s57" d="m410.6 387c5.4 5.4 4.5 10.1-3 13.1-3.7-0.3-6.6-0.6-9.9-1.1-6.9-1.3-13.3-2.5-19.8-4.1 0.5-2.7 0.9-5 1.6-7.1 5.9 2.1 3.7-2.8 4.7-4.9 4.9 0.7 9.8 1.4 15.1 2.5 0.4 0.8 0.2 1.4 0.3 1.8 0.6 1.5 1.2 2.9 1.9 4.4 0.8-1.3 1.7-2.5 2.4-3.8 0.3-0.5 0.2-1.2 0.3-1.9 2 0.3 4 0.7 6.4 1.1z"/>
	<path class="s58" d="m379.1 387.6c-0.3 2.3-0.7 4.6-1.6 7.2-8.2-0.7-15.9-1.8-24-2.9-3.1-0.8-5.8-1.4-8.5-1.9 1.6-3.9 3.3-7.8 5.1-12.1 3 0.1 5.9 0.5 9.1 1.4 1 2.4 1.5 4.4 2 6.3q1.4-2.6 2.8-5.2c0.1-0.1 0.1-0.3 0.1-0.5 4.9 0.7 9.9 1.4 15.2 2.5 0.2 2 0 3.6-0.2 5.2z"/>
	<path class="s44" d="m404.1 385.6c0 1 0.1 1.7-0.2 2.2-0.7 1.3-1.6 2.5-2.4 3.8-0.7-1.5-1.3-2.9-1.9-4.4-0.1-0.4 0.1-1 0.1-1.8 1.6-2.4 3.1-3 4.4 0.2z"/>
	<path class="s44" d="m364 379.6c0.1 0.5 0.1 0.7 0 0.8q-1.4 2.6-2.8 5.2c-0.5-1.9-1-3.9-1.5-6.3 1.4-0.2 2.8-0.1 4.3 0.3z"/>
	<path class="s44" d="m379.5 387.8c-0.2-1.8 0-3.4 0.2-5.4 1.4-0.3 2.8-0.2 4.3 0.2-0.8 2.4 1.4 7.3-4.5 5.2z"/>
	<path class="s44" d="m342.9 369.2c-0.7 0.8-1.3 1.4-2.1 1.6-1.4 0.5-2.9 0.7-4.3 1.1 0.4-1.4 0.8-2.8 1.4-4.5 2.6-1.8 4.5-2.2 5 1.8z"/>
	<path class="s59" d="m246.1 228.2q-12.7-15.2-25.5-30.4-0.7 0.1-1.5 0.1c0 13.5 0 27 0.1 41.4-1.2 13.9-4.5 26.5-9.5 38.9-4 8.1-7.7 15.9-11.6 24.1-4.6 8-8.9 15.8-13.5 23.7-3.3 5.5-6.4 10.7-9.5 16-1.8 2.7-3.7 5.4-6.2 9-2.2-6.3-4.3-11.9-6.5-17.8-2.6-9.3-4.9-18.4-7.4-28.2-1-6.9-2-12.9-2.9-19.5 0.1-9.6 0.1-18.8 0.1-25.8-8.9 8-18.3 16.6-28.1 25.3-6.5 6.4-12.7 12.7-19 19.1-0.4 0-0.9-0.1-1.7-0.1-0.6-6.2-0.8-12.2-1.1-18.6-0.2-7.1-0.1-13.8-0.2-20.9 0.8-7.5 1.6-14.4 2.5-21.8 2.1-7.3 4.1-14.1 6.2-21.3 4.6-7.2 9.2-14 13.9-21.1 7-5.4 14-10.5 21.2-15.8-2.8-1.8-6-3.9-9.6-6.1-6.3-5-12.2-9.8-18.2-15.1 9.1-5 18.3-9.8 27.7-14.8 9.7-2.5 19.1-4.5 28.9-2.5 11.6 2.5 21.4 8 30.1 15.8 1.3 1.1 2.5 2.2 3 2.7 3.7-8.6 7.4-17.2 11.2-26.1 3.2-3.4 6.3-6.4 9.5-9.8 5.6-3.5 10.9-6.8 16.4-10.3 9.2-2.6 18.2-4.9 27.7-7.4 2.4 0 4.5 0 7.2 0.4 0.3 2.1 0 3.8-0.5 5.9-1.1 3.8-2.1 7.3-3.2 11.1-1.1 3.2-2.1 5.9-3.3 9-0.7 1.4-1.1 2.5-1.8 4.3 8.6 0 16.8-1.3 24.5 0.3 11 2.3 21.5 6.7 32.5 10.5 5 3.5 9.7 6.7 14.7 10.2 4.2 5 8.3 9.7 12.4 14.7 2.7 6.8 5.4 13.3 8.1 20.1 0.6 3.9 1.3 7.4 2.1 11.4-18.2-2.2-35.6-4.3-53.6-6.5 5.3 6.6 10.1 12.5 15 18.7 3.9 6.9 7.6 13.4 11.3 20 2.4 6.9 4.7 13.7 7.2 20.9 1.2 6 2.3 11.6 3.4 17.6-2.6-0.2-5.2-0.8-8.6-1.4-7.6-1.9-14.5-3.2-21.1-5.4-10.7-3.6-21.1-7.8-31.9-12.1-4.6-2.7-9.5-4.5-13.2-7.7-9.5-7.9-18.5-16.4-27.7-24.7zm-24.7-74.7q-1.8 7.2-3.6 14.4 0.5 0.2 1.1 0.4c6.1-4.7 12.3-9.4 19.1-14.3 3-1.7 6-3.3 9.7-5.1 3.8-1.9 7.6-3.9 11.9-6.2 0.8-1.6 1.6-3.1 2.9-5.2 0.8-2.1 1.7-4.3 3-7q1.3-4.4 2.6-8.8-0.8-0.7-1.6-1.4c-6.5 2.6-13 5.1-20.1 8-3.5 2.2-7 4.4-11 7-2.2 1.9-4.3 3.8-7 6.1-1.2 1.8-2.3 3.7-4 6-0.9 1.8-1.7 3.7-3 6.1zm-49.9 52.1q5.7-6.2 11.4-12.5-0.4-0.4-0.8-0.9c-6.2 2.7-12.4 5.5-17.7 11.1-4.8 4.9-9.6 9.8-15 15-2.8 3.9-5.6 7.7-9 12-2.8 4.5-5.6 9.1-9.2 13.7-1.1-0.1-2.1-0.1-3.3-0.8 0.7-2.7 1.4-5.5 2.6-8.6 2.9-4.6 5.7-9.1 9.1-13.9 2.5-3.2 5-6.5 8.1-10 3.1-3.2 6.2-6.5 9.9-10 4.9-3.6 9.7-7.3 14.6-11-4.2-3.5-18.4 0.8-29.9 8.4-4.4 4-8.9 7.9-13.9 12.2-2.1 3.2-4.3 6.5-6.9 10.2-1.5 4.1-3.1 8.3-5.1 13-0.9 3.8-1.7 7.6-3.1 12-0.3 2.9-0.7 5.7-1.2 9.4-0.1 2.7-0.1 5.4-0.6 8.8q0 9.5 0 19.1 0.7 0.3 1.5 0.6c6.1-6.4 12.2-12.9 18.8-19.6 2.8-2.9 5.6-5.8 9-9 2.5-2.9 5.1-5.8 8.1-9.1 4.5-3.8 7.8-8.3 8-14.8 1.8-4 3.5-8 5.7-12.3 2.8-4.2 5.6-8.4 8.9-13zm171.5-29.3c-3-2.8-6-5.6-9.3-8.9-3.5-2.2-7.1-4.3-11-7.1-4.3-1.7-8.5-3.5-13.2-5.8-5.8-1.4-11.5-3.5-17.3-4.1-10.6-1-21.2-1.1-32 3.6-6.6 2.1-13.1 4.7-18.4 9.5 3.3 0 6.3-0.8 9.4-1 9.3-0.6 18.7-1.4 28-1.4 5.9 0 11.8 1.3 18.2 2.5 5.5 2.1 11.1 4.3 17 6.9 3.3 2.2 6.5 4.4 9.7 7.3 0 1-0.1 2-1 3.1-1 0.1-2 0.2-3.7-0.1-2.1-1.3-4.1-2.6-6.7-4.4-4.2-1.8-8.5-3.6-13.4-5.7-16.1-5.7-46.6-5.6-57.8 0.1 8.1 1 16.3 2.1 25.2 3.5 4.4 1.6 8.8 3.2 13.7 5.2 2.7 1.3 5.4 2.5 8.5 4.3 2.7 1.8 5.3 3.5 8.4 5.9 1.5 0.8 2.8 2 4.4 2.2 13.4 1.8 26.8 3.4 40.3 5 3.8 0.5 7.6 0.8 12.4 1.2-1.8-4.1-3.1-7.1-4.5-10.8-0.9-1.4-1.8-2.9-2.9-5.1-1.3-1.7-2.6-3.5-4-5.9zm-132 33.8q-0.6-7.4-1.2-14.7-0.9-0.2-1.9-0.3c-2.3 4.9-4.6 9.9-7.4 15.4-2.1 4.8-4.3 9.7-6.5 15.3-1.6 5.7-3.3 11.5-5.3 17.9-1.2 4.8-2.4 9.6-3.7 15.1-0.7 4.7-1.4 9.5-2.5 14.9-0.3 1.8-0.2 3.7-0.9 5.3-0.7 1.5-2.2 2.5-3.4 3.7-0.7-1.4-2.1-2.9-2.1-4.3 0-3.8 0.6-7.6 1.4-12 0.6-3.4 1.1-6.9 2.1-10.9 0.8-4.1 1.7-8.2 3-12.9 1.2-4.5 2.3-9 4-14 1.8-4.9 3.6-9.7 5.9-15 2.8-6 5.6-11.9 8.4-18-6.5-0.7-13.7 4.6-23.2 17-2.9 5.1-5.8 10.2-9.3 15.8-1.5 4.6-2.9 9.1-4.7 14.3-0.6 4.1-1.1 8.2-2.1 13-0.1 3.8-0.3 7.6-0.6 12.3 0.3 6 0.5 12 0.8 19 0.7 4.6 1.4 9.3 2.1 14.8q3.3 14 6.5 27.9 0.8 0.1 1.6 0.1c5.1-9.2 10.2-18.4 15.8-28.1 2.5-4.9 4.9-9.8 7.8-15.1 1.8-4.2 3.6-8.4 5.9-13.1 1.6-4.8 3.2-9.6 5.2-15 0.8-5.2 1.6-10.3 2.9-16.1 0.4-5.5 0.9-10.9 1.4-17.3 0-4.7 0-9.4 0-15zm-29.7-52.4c-10.8-3.7-21.6-4.4-33.1 0.3-3.1 1.3-6.1 2.6-9.9 4.1-1.4 0.8-2.8 1.6-4.9 2.8 2.7 1.8 4.6 3 6.8 4.8 1.9 1.1 3.7 2.3 6 3.9 6.3 4.4 12.4 7.9 20.9 4.8 6.2-2.3 13.2-2.5 20.7-3.5 5.1-0.4 10.3-0.8 16.4-1.2-2.3-2.1-3.8-3.4-5.5-5.3-2.2-1.5-4.4-3-7-5.1-3.2-1.7-6.5-3.5-10.4-5.6zm56 45.9c2.5 2.8 5.1 5.6 7.7 9.1 3.7 4.1 7.4 8.2 11.3 12.9 2.9 2.8 5.7 5.7 8.9 9.1 2.8 2.1 5.6 4.3 8.8 7 5.2 3.1 10.4 6.3 16.1 10 14.8 7.6 30.3 12.6 47.8 16.4-2.5-6.9-4.6-12.5-6.8-18.9-1.3-2.8-2.6-5.5-4.1-9-1.7-3-3.4-6.1-5.4-9.8-2.8-3.8-5.7-7.7-8.6-12.2-3.7-3.7-7.3-7.5-11.3-11.8-4.5-3.8-9.1-7.6-14-12-13.7-11.3-29.6-12-46.1-9.8q-0.3 0.7-0.6 1.5c6.3 3.3 12.6 6.6 19.3 10.5 5.8 3.8 11.7 7.6 17.7 12.1 4.9 3.8 9.8 7.6 14.9 12 4 4.2 8 8.3 12.1 13.2q-0.7 2-1.3 3.9c-1.3-0.5-2.8-0.7-3.9-1.5-1.7-1.3-3.1-2.9-5-4.9-3.2-2.9-6.4-5.7-10-9.1-4.9-3.7-9.9-7.5-15.2-11.8-6.2-3.9-12.4-7.7-19-12-6.8-3.8-13.5-7.6-20.4-11.3-0.9-0.5-2.3-0.1-3.5-0.1 0 1.1-0.3 2.4 0.3 3.1 3.2 4.4 6.6 8.6 10.3 13.4z"/>
	<path class="s7" d="m287.2 260.9c10.6 4 21 8.2 31.7 11.8 6.6 2.2 13.5 3.5 20.7 5.4-1.5 0.7-3.3 1.8-5.2 1.8-25 0.2-50 0.2-75.5 0.2-2-5.8-3.4-11.5-4.3-17.7 7.6-0.4 14.8-0.3 21.9-0.4 3.6-0.1 7.2-0.7 10.7-1.1z"/>
	<path class="s41" d="m338.5 241c-4.2-6.6-7.9-13.1-11.5-20.4 2.3-1 4.4-1.6 6.4-1.6 42.5 0 84.9 0 127.3 0.4 0.8 6.2 5.2 8.9 9.1 5.7 1.5-1.2 2.2-3.3 3.5-5 0.5-0.5 0.9-0.9 1.2-1.2 5.7 0.3 11.4 0.8 17.1 1.1 3.8 0.1 7.6 0 11.9 0.3 0.2 1.5-0.1 2.6-0.5 4.1-0.7 2.4-1.3 4.5-2.1 6.9-0.8 3.1-1.4 5.9-2 8.7-2.7 0.3-5.5 1-8.3 1-50.6 0-101.1 0-152.1 0z"/>
	<path class="s41" d="m516.3 221c9.2 0.3 18.5 0.7 28.2 1.4 0.6 2.2 0.7 3.9 0.7 6 0.1 3.6 0.2 6.6 0.2 10.1-0.1 1.4-0.2 2.4-0.3 3.5-11.5 0-23 0-34.9-0.4 0-2.1 0.4-3.9 1.1-5.8 1.1-3.1 1.9-5.9 2.9-9.1 0.8-2.1 1.5-3.9 2.1-5.7z"/>
	<path class="s60" d="m545.3 242.3c-0.1-1.4 0-2.4 0.5-3.9 4 0 7.6 0.3 11.1 0.6 0.1 0.4 0.1 0.9 0.3 1.7 0 2.2 0 4.2-0.1 6.2-0.2 3.7-2.2 6-5.8 5.9-3.4-0.1-5.3-2.3-5.5-5.7-0.1-1.5-0.2-3-0.5-4.8z"/>
	<path class="s60" d="m511 236c-0.4 1.7-0.8 3.5-1.3 5.5-4 3.5-7.5 3.5-10.6-1.2 0.4-3.1 1-5.9 2.1-8.9 3.7 1.4 6.8 3 9.8 4.6z"/>
	<path class="s0" d="m175.6 342c2.6-5.3 5.7-10.5 9.3-15.7 2.4 0.3 4.2 0.7 6 0.7 14 0 28.1 0 42.2 0 0.4 4.7 0.8 9.4 1.1 14.5-19.4 0.5-38.8 0.5-58.6 0.5z"/>
	<path class="s17" d="m233.7 415c2.1-0.7 3.9-1.3 6.2-2 0.8 0 0.9 0 1.2 0.4 2.9 2.4 5.8 4.6 8.8 6.5 6 3.8 12.1 7.4 18.1 11.1-2 0.7-4.1 1.4-6.6 2.1-4.6 1.4-8.8 2.9-13.3 4.6-4.7 1.8-9.2 3.3-13.9 5-1.3 0.5-2.5 0.8-3.9 0.8-1.4-1.3-2.2-2.7-3.4-3.3-5-2.8-10.3-5.2-15.3-8-2.1-1.1-3.8-2.9-5.7-4.4 9.2-4.2 18.3-8.4 27.8-12.8z"/>
	<path class="s34" d="m205.6 427.9c2.2 1.4 3.9 3.2 6 4.3 5 2.8 10.3 5.2 15.3 8 1.2 0.6 2 2 3 3.4-2.1 1.5-4.3 2.7-6.7 4.1-4.3 2.2-8.4 4.1-12.9 6.2-4.7 2.8-9.1 5.4-14 7.7-1.6-1.5-2.6-3.1-4.1-4-6-3.5-12.1-6.7-18.1-10 1.1-1 2.3-1.9 3.6-3.1 8.1-5.1 16.1-10 24.2-15.1 1.3-0.7 2.3-1.1 3.7-1.5z"/>
	<path class="s60" d="m397 93c-4.4-0.5-8.8-1.1-13.6-1.8-2.2-6-0.1-9.2 5.8-9.4 2.3-0.1 4.6 0 7.3 0.6 0.5 3.9 0.5 7.3 0.5 10.6z"/>
	<path class="s54" d="m422.9 89.4c-3.3 5.3-8.4 3.6-13.5 3.3-0.4-3.9-0.4-7.3-0.4-10.7 2.3 0 4.6-0.2 6.8-0.2 5.2 0.1 6.8 1.8 7.1 7.6z"/>
	<path class="s61" d="m408.5 82c0.5 3.4 0.5 6.8 0.5 10.6-3.7 0.5-7.4 0.6-11.5 0.5-0.5-3.4-0.5-6.8-0.5-10.6 3.7-0.5 7.4-0.6 11.5-0.5z"/>
	<path class="s38" d="m105.5 304.2c5.9-6.5 12.1-12.8 19.1-19.1 9.6 0.2 18.6 0.6 27.5 0.9 0.9 6.1 1.9 12.1 2.8 18.6-14.4 0.4-28.8 0.4-43.2 0.4-1.9 0-3.9-0.4-6.2-0.8z"/>
	<path class="s19" d="m472.6 470.9c2.8 2.7 5.3 5.3 8.1 8.1 1.9 1.8 3.6 3.4 5.3 5.4-1.3 4.3-3.8 1.5-5.4 0.8-6.6-3.2-13-6.7-19.4-10.1-11.5-6.1-22.9-12.2-34.4-18.2-30.3-15.8-60.6-31.6-90.9-47.5-3.1-1.6-5.8-3.7-8.4-6 10.1 0.7 19.8 1.9 29.7 3.1 3.9 1 7.6 1.9 11.5 2.9 4.6 1.5 8.9 2.8 13.5 4.3 2.4 0.9 4.5 1.5 6.9 2.5 9.6 4.4 18.9 8.7 28.3 13 7.9 4.9 15.8 9.9 24 15 3.3 2.3 6.2 4.5 9.4 6.9 7.4 6.7 14.5 13.2 21.8 19.8z"/>
	<path class="s62" d="m417.7 429c-9.7-4.1-19-8.4-28.4-13.1 5.1-4.7 10.4-8.8 15.7-12.9 1.8 0.6 3.6 1.9 5.4 1.9 19.2 0.2 38.3 0 57.5 0.2 2.3 0 4.7 1.2 7.4 2-13.4 4.7-27.4 8.9-41.1 13.7-5.6 2-10.8 5.3-16.5 8.2z"/>
	<path class="s40" d="m173.8 447.7c6.3 3.2 12.4 6.4 18.4 9.9 1.5 0.9 2.5 2.5 3.8 4.1 0 0.3 0 0.8 0 1-3.5 2.8-7.1 5.3-10.8 8-3.1 2.8-6 5.2-9.1 8-1.9 1.5-3.7 2.8-5.8 4.2-1.8-1.8-2.9-4.3-4.9-5.6-4.8-3.2-10.1-5.9-15.3-9.2 5.8-5.6 11.8-10.9 18-16.5 1.9-1.5 3.7-2.6 5.7-3.9z"/>
	<path class="s60" d="m389.2 51.3c0.6-7 2.7-8.3 10.4-6 0.7 4.2 1 7.8 1.3 11.4-4.2-0.9-9.1-0.2-11.7-5.4z"/>
	<path class="s61" d="m401.2 56.8c-0.6-3.7-0.9-7.3-1.2-11.3 2.8 0 5.6 0.5 8.7 1.2 0.6 3.8 0.9 7.4 1.2 11.4-2.8-0.1-5.6-0.6-8.7-1.3z"/>
	<path class="s63" d="m405.1 402.7c-5.4 4.4-10.7 8.5-16.1 12.9-2.3-0.4-4.4-1-6.7-2.3 5.2-5 10.4-9.6 15.7-14.1 3 0.3 5.9 0.6 9.2 1-0.4 0.8-1.2 1.5-2.1 2.5z"/>
	<path class="s64" d="m479.1 516.6c-5.7-2-11.6-4-17.2-6.8-7.8-3.8-15.2-8.2-22.8-12.3q-37.8-19.9-75.6-39.7c-16.9-8.9-33.9-17.6-50.8-26.5-1.7-0.9-3.1-2.3-4.2-3.9 11.1 0.3 21.8 1 32.5 1.6 3.1 0.9 6.2 1.8 9.7 3.1 1.6 1.8 2.7 3.4 4.1 4.2 7.8 4.2 15.6 8.2 23.4 12.3 20.2 10.6 40.3 21.2 60.5 31.7 3.6 1.9 7.6 3.1 11.4 4.7 10.5 9.6 21.4 18.9 29 31.6z"/>
	<path class="s65" d="m449.9 484.7c-3.6-1.3-7.6-2.5-11.2-4.4-20.2-10.5-40.3-21.1-60.5-31.7-7.8-4.1-15.6-8.1-23.4-12.3-1.4-0.8-2.5-2.4-3.8-4 38.1 7.3 70.7 25.5 98.9 52.4z"/>
	<path class="s12" d="m341 428.7c-10.7-0.3-21.4-1-32.5-1.6-0.7-0.1-0.8-0.1-1.3-0.5-2.2-2.1-3.9-4.2-6.1-5.4-7.8-4.4-15.8-8.3-23.7-12.6-1.4-0.7-2.3-2.4-3.1-3.8 3.2-0.8 6-1.3 8.8-1.9 1.7 0 3.4-0.1 5.5-0.2 2.8-0.3 5.2-0.5 8-0.6 4.3 2.7 8.1 5.5 12.3 7.8 9.2 5 18.6 9.6 27.8 14.5 1.6 0.9 2.8 2.6 4.3 4.3z"/>
	<path class="s15" d="m357 406.4c-9.7-1.1-19.4-2.3-29.6-3.3-5.4-0.4-10.5-0.9-15.8-1.7 6-8.1 12.3-15.8 18.5-23.6 4.1 4 8.2 8 12.7 12.4 5 5.7 9.6 11 14.2 16.2z"/>
	<path class="s63" d="m330 377.5c-6.1 8.1-12.4 15.8-18.8 23.8-2.3 0.3-4.4 0.4-6.9 0.4 0.4-1.6 1-3.3 2.1-4.7 6.1-7.9 12.2-15.7 18.6-23.8 1.8 1.1 3.3 2.6 5 4.3z"/>
	<path class="s39" d="m327.8 152.1c-10.8-3.5-21.3-7.9-32.3-10.2-7.7-1.6-15.9-0.3-24.5-0.3 0.7-1.8 1.1-2.9 2.3-4.3 60.3-0.3 119.9-0.3 179.5-0.3 4.1 6.4 8.1 12.8 11.9 19.7-9.5 0.8-18.7 1.1-27.9 1.1-1 0-2-1.5-2.7-2.5 3.2-2.6 5-5.6 2.1-9.1-2.8-3.2-6-2.8-9.5-0.1-2.5 1.3-4.6 2.5-7.1 3.8-1.9 0.8-3.5 1.6-5.6 2.1-2.2-0.4-3.9-1-5.7-1q-37.4-0.1-74.7 0c-2 0.1-3.9 0.7-5.8 1.1z"/>
	<path class="s50" d="m433.8 155.6c1 0.7 2 2.2 3 2.2 9.2 0 18.4-0.3 28.1-0.7 6 5.5 11.7 11.2 17.7 17 1.6 1.1 2.9 2.2 4.1 3.8-9.5 0.7-18.9 0.8-28.1 0.6 0.9-3.7-0.1-6.3-3.2-7.7-3.7-1.6-6.2 0.4-8.6 3.4-1.4 1-2.5 1.9-4.1 2.9-29.5-0.1-58.6-0.1-87.7-0.1-4-4.7-8.1-9.4-11.9-14.6 2.3-0.8 4.4-1.4 6.5-1.4 17.7 0 35.4 0 53.2 0.4 0.6 6.8 3.8 8.6 9.4 5.5 1.3-0.7 2.5-1.4 4.1-2.2 2.8-1.5 5.3-3 8.2-4.5 2.7-1.5 5.1-2.9 7.8-4.3 0.7-0.1 1.1-0.2 1.5-0.3z"/>
	<path class="s46" d="m452.7 136.7c-59.5 0.3-119.1 0.3-179.2 0.3 0.5-2.8 1.5-5.5 3.1-8.7 37.1-0.3 73.7-0.3 110.4 0 1.9 4.8 5.2 5.6 9.4 4.2 1.8-0.6 3.7-1.1 6-1.7 4.1-1.2 7.9-2.3 12.1-3.5 1.8-0.2 3.1-0.4 4.5-0.2 0.6 0.8 1.1 1.7 1.5 1.7 9.4-0.2 18.8-0.5 28.3-0.8 1.3 2.8 2.5 5.5 3.9 8.7z"/>
	<path class="s44" d="m448.7 127.7c-9.4 0.6-18.8 0.9-28.2 1.1-0.4 0-0.9-0.9-1.3-1.9 4.4-1.8 8.1-3.5 8.2-8.9 6.2-0.3 11.9-0.7 17.5-1 0.9 2.2 1.7 4.5 2.7 7 0.5 1.3 0.8 2.3 1.1 3.7z"/>
	<path class="s66" d="m274 404.9c1.1 1.3 2 3 3.4 3.7 7.9 4.3 15.9 8.2 23.7 12.6 2.2 1.2 3.9 3.3 5.8 5.4-5.9 0.7-12 1.1-18.4 1.5-4.5 0.6-8.6 1.3-13.1 1.9-2.4 0.4-4.5 0.7-7 1-6.4-3.7-12.5-7.3-18.5-11.1-3-1.9-5.9-4.1-8.5-6.7 11-3.1 21.8-5.7 32.6-8.3z"/>
	<path class="s47" d="m445 116.6c-5.7 0.7-11.4 1.1-17.8 1.1-3.1-1.4-5.3-3.3-7.7-3.5-2.4-0.2-5 1.3-7.9 2.1-4.1 0.9-7.8 1.8-11.7 2.4-2.1-0.9-4.1-1.6-6.1-1.6-38.1-0.2-76.2-0.2-114.3-0.2 0.3-1.8 0.6-3.5 0.7-5.6 1.8-1 3.8-2.2 5.8-2.2 52-0.1 104.1-0.1 156.6-0.1 1.1 2.4 1.7 4.8 2.4 7.6z"/>
	<path class="s37" d="m458.4 178.8c9.4-0.1 18.8-0.2 28.4-0.6 10.5 4.9 20.5 10.8 31.1 14.9 7.6 3 16.1 3.4 24.6 5-1 0.7-2.6 1.8-4.1 1.8-17.3 0.1-34.5 0.1-52.3-0.3-1.8-6.3-5.7-8.7-9.5-5.7-1.6 1.2-2.5 3.3-3.9 5.2-0.4 0.4-0.7 0.6-1.4 0.9-9.6 0-18.7 0.1-27.9-0.1-1.5 0-2.9-1.3-4.3-2.2 1-1.3 1.9-2.3 3-3.5 1.9-1.7 3.5-3.2 5.4-4.9 2.4-2.2 4.4-4.3 6.8-6.4 1.6-1.5 2.8-2.8 4.1-4.1z"/>
	<path class="s45" d="m545.3 228c-0.1-1.7-0.2-3.4-0.3-5.6 2.7-5.7 5.5-6.4 10.7-2.6 0.6 2.9 0.9 5.6 0.7 8.8-4 0.1-7.6-0.3-11.1-0.6z"/>
	<path class="s54" d="m471.8 200c0.2-0.3 0.5-0.5 1.3-0.9 3.4 2 6.2 4.1 9 6.1-1.1 2.2-2.3 4.3-4.1 6.5-3.4-2-6.3-4-9-6.3 0.9-2 1.9-3.7 2.8-5.4z"/>
	<path class="s45" d="m482.4 205c-3.1-1.8-5.9-3.9-9.1-6 0.8-1.8 1.7-3.9 3.3-5.1 3.8-3 7.7-0.6 9 5.6-1 2-2 3.7-3.2 5.5z"/>
	<path class="s54" d="m516.3 220.7c-0.6 2.1-1.3 3.9-2.5 6-3.9-0.8-7.3-1.7-10.6-2.7 0.2-1.1 0.5-2.2 0.7-3.7 0.5-1.5 1-2.7 2-4.1 4 0.9 7.3 1.9 10.6 2.9-0.1 0.4-0.2 0.8-0.2 1.6z"/>
	<path class="s61" d="m468.9 205.7c2.8 2 5.7 4 8.8 6.2-0.7 2.2-1.8 4.2-3 6.6-0.5 0.7-0.9 1.1-1.5 1.2-3.1-2.4-6-4.5-8.8-7 1.6-2.5 3-4.8 4.5-7z"/>
	<path class="s45" d="m516.6 218.8c-3.4-0.7-6.7-1.7-10.4-2.8 1.3-2.4 2.5-6 4.8-6.8 4.7-1.8 7.4 2.8 5.6 9.6z"/>
	<path class="s54" d="m545.2 228.4c3.6-0.1 7.2 0.3 11.2 0.6 0.4 3 0.5 6.1 0.6 9.6-3.6 0.1-7.2-0.2-11.1-0.5-0.5-3.1-0.6-6.1-0.7-9.7z"/>
	<path class="s10" d="m233.1 326.6c-14.1 0.4-28.2 0.4-42.2 0.4-1.8 0-3.6-0.4-5.7-0.9 4-8 8.3-15.8 13.3-23.8 11-0.3 21.3-0.3 31.6-0.3 1 8 2 16.1 3 24.6z"/>
	<path class="s67" d="m274.3 404.8c-11.1 2.7-21.9 5.3-33 8.1-0.5 0.1-0.6 0.1-1.1 0 0.1-7.7 0.5-15.3 1.2-23.5 12.2-2.8 24-5.2 35.8-7.5 1.9 6.8 3.9 13.5 5.9 20.6-2.8 1-5.6 1.5-8.8 2.3z"/>
	<path class="s68" d="m277.1 381.5c-11.7 2.7-23.5 5.1-35.6 7.5-0.4-8.7-0.4-17.4 0-26.5 10.1-2.2 19.8-3.8 29.4-5.5 2.1 8 4.1 16.1 6.2 24.5z"/>
	<path class="s69" d="m270.9 356.6c-9.6 2.1-19.3 3.7-29.4 5.4-0.7-8.7-1.1-17.4-1.1-26.6 8.1-2.1 15.8-3.8 23.5-5.4 2.4 8.8 4.7 17.5 7 26.6z"/>
	<path class="s70" d="m263.8 329.7c-7.6 1.9-15.3 3.6-23.4 5.3-1-8.7-1.7-17.4-2.2-26.8 6.4-1.9 12.6-3.1 18.8-4.2 2.2 8.4 4.5 16.9 6.8 25.7z"/>
	<path class="s3" d="m230.1 301.6c-10.3 0.4-20.6 0.4-31.4 0.4 3.3-7.9 7-15.7 11.5-23.8 5.9-0.2 11.2-0.2 16.4-0.2 1.2 7.7 2.4 15.4 3.5 23.6z"/>
	<path class="s71" d="m257 303.6c-6.2 1.5-12.4 2.7-18.8 4.1-1.9-9.7-3.5-19.8-4.8-30.3 6.1-1.1 11.9-1.7 17.6-2.4 2 9.4 4 18.8 6 28.6z"/>
	<path class="s4" d="m287 260.6c-3.3 0.7-6.9 1.3-10.5 1.4-7.1 0.1-14.3 0-21.9 0-3.1-11-5.8-22-8.5-33.4 9.2 7.9 18.2 16.4 27.7 24.3 3.7 3.2 8.6 5 13.2 7.7z"/>
	<path class="s72" d="m250.9 274.6c-5.6 1.1-11.4 1.7-17.5 2.4-1.9-8.1-3.5-16.1-4.8-24.2-0.2-0.9 1-2.7 1.9-2.9 3.8-0.8 7.7-1.5 11.5-1.5 1.1 0 2.7 2.3 3.1 3.7 2.1 7.4 3.9 14.8 5.8 22.5z"/>
	<path class="s7" d="m226.6 277.6c-5.2 0.4-10.5 0.4-16.2 0.4 4.3-12.2 7.6-24.8 8.8-38.3q3.7 18.4 7.4 37.9z"/>
	<path class="s63" d="m357.2 406.5c-4.8-5.3-9.4-10.6-14.1-16.2 0.4-0.3 0.8-0.3 1.6-0.3 3 0.5 5.7 1.1 8.9 2.2 5.3 6 10.1 11.5 14.8 17.1-3.6-0.9-7.3-1.8-11.2-2.8z"/>
	<path class="s62" d="m368.7 409.4c-5-5.7-9.8-11.2-14.7-17.1 7.6 0.7 15.3 1.8 23.5 2.9 6.9 1.3 13.3 2.5 20.2 3.8-5 4.7-10.2 9.3-15.7 14.2-4.4-1-8.7-2.3-13.3-3.8z"/>
	<path class="s35" d="m469 205.4c-1.6 2.5-3 4.8-4.8 7.6-1.4 2.4-2.4 4.2-3.5 6-42.4 0-84.8 0-127.3 0-2 0-4.1 0.6-6.5 1.3-5.1-5.5-9.9-11.4-15.2-18 18 2.2 35.4 4.3 53.6 6.5-0.8-4-1.5-7.5-1.7-11.4 21.9-0.4 43.2-0.4 64.9-0.2 3.4 4.4 6.9 3.3 10.5 0.8 1.5 0.6 2.9 1.9 4.4 1.9 9.2 0.2 18.3 0.1 27.9 0.1-0.4 1.7-1.4 3.4-2.3 5.4z"/>
	<path class="s73" d="m428.2 197c-21.4 0-42.7 0-64.5 0-3.2-6.4-5.9-12.9-8.6-19.7 29-0.3 58.1-0.3 87.5 0-0.7 1.4-1.7 2.5-3 3.8-2.2 2-4 3.9-6.2 5.9-3.3 2.7-6.4 5.3-5.2 10z"/>
	<path class="s44" d="m279.3 117.2c38.3-0.3 76.4-0.3 114.5-0.1 2 0 4 0.7 6.1 1.7 0 0.6 0 0.9-0.4 1-2.1 0.4-3.9 0.9-5.6 1.2-3.8 0.9-6.7 2.7-7 7-36.6 0-73.2 0-110.2 0 0.5-3.5 1.5-7 2.6-10.8z"/>
	<path class="s51" d="m402.7 161c-17.7 0-35.4 0-53.1 0-2.1 0-4.2 0.6-6.7 1.1-5.2-3-9.9-6.2-14.9-9.7 1.7-0.7 3.6-1.3 5.6-1.4q37.3-0.1 74.7 0c1.8 0 3.5 0.6 5.6 1.3-0.2 0.7-0.6 1-1.4 1.5-3.5 2.4-6.6 4.8-9.8 7.2z"/>
	<path class="s74" d="m177 267c-0.3 3.8-0.9 7.6-0.9 11.4 0 1.4 1.4 2.9 2.1 4.3 1.2-1.2 2.7-2.2 3.4-3.7 0.7-1.6 0.6-3.5 1.5-5.7 6.4 0 12.1 0.4 17.9 0.7-1.8 4.2-3.6 8.4-6 12.6-11.5-0.1-22.4-0.3-33.3-0.5-0.2-6.1-0.4-12.1-0.2-18.6 5.5-0.5 10.5-0.5 15.5-0.5z"/>
	<path class="s74" d="m295.1 231.9c1.6 1.5 3 3.1 4.7 4.4 1.1 0.8 2.6 1 3.9 1.5 0.4-1.3 0.8-2.6 1.4-4.7 1.5-1.2 3-2 4.5-2 4.1-0.2 8.2-0.1 12.3-0.1 1.7 3.1 3.4 6.2 4.7 9.6-11.4 0.4-22.4 0.4-33.3 0.4q-9.9 0-19.7 0.1c-2.8-2.1-5.6-4.3-8.3-7.1 1.9-1.1 3.7-1.9 5.5-1.9 8.1-0.2 16.2-0.1 24.3-0.2z"/>
	<path class="s75" d="m331.2 249.9c2.1 5.7 4.2 11.3 6.7 18.2-17.5-3.8-33-8.8-47.6-16.9 2.1-0.7 4.1-1.1 6-1.2 11.6-0.1 23.3-0.1 34.9-0.1z"/>
	<path class="s76" d="m331.1 249.6c-11.5 0.3-23.2 0.3-34.8 0.4-1.9 0.1-3.9 0.5-6.2 1-5.7-3-10.9-6.2-16.3-9.6 6.3-0.3 12.9-0.4 19.5-0.4 10.9 0 21.9 0 33.4 0 1.8 2.7 3.1 5.4 4.4 8.6z"/>
	<path class="s77" d="m310 155c4.2 1.8 8.4 3.6 12.5 5.9-6.7 0.5-13.4 0.4-20 0.5-1.9 0-3.7 1.1-5.6 1.7-5.9-0.7-11.8-2-17.7-2-9.3 0-18.7 0.8-28 1.4-3.1 0.2-6.1 1-9.4 1 5.3-4.8 11.8-7.4 19.2-9.3 2.2 0.4 3.7 0.7 5.1 0.8 9.4 0.4 18.8 0.8 28.2 0.9 5.2 0.1 10.5-0.6 15.7-0.9z"/>
	<path class="s76" d="m161.8 286.5c10.8-0.2 21.7 0 32.9 0.4-2 5-4.4 9.9-7.5 14.8-8.2-0.2-15.7-0.4-23.3-0.7-0.7-4.7-1.4-9.4-2.1-14.5z"/>
	<path class="s7" d="m152.1 285.5c-8.9 0.2-17.9-0.2-27.2-0.6 9-8.6 18.4-17.2 27.3-25.2 0 7 0 16.2-0.1 25.8z"/>
	<path class="s75" d="m350 188c1.3 3 2.6 6 4.4 10.1-4.8-0.4-8.6-0.7-12.4-1.2-13.5-1.6-26.9-3.2-40.3-5-1.6-0.2-2.9-1.4-4.4-2.8 1.9-1.1 3.7-2 5.5-2 3.3 0 6.6 0.8 9.9 0.9 12.4 0.1 24.8 0 37.3 0z"/>
	<path class="s75" d="m163.9 301.4c7.6-0.1 15.1 0.1 23 0.6-4.7 9.4-9.8 18.6-14.9 27.8q-0.8 0-1.6-0.1c-2.2-9.3-4.3-18.6-6.5-28.3z"/>
	<path class="s78" d="m259.9 196q-9.4-5-18.9-9.9 0.3-0.8 0.6-1.5c16.5-2.2 32.4-1.5 45.8 10.2-4.1 0.5-8 0.7-11.9 0.8-5.2 0.2-10.4 0.3-15.6 0.4z"/>
	<path class="s79" d="m260.1 196.3c5-0.4 10.2-0.5 15.4-0.7 3.9-0.1 7.8-0.3 12.1-0.6 5 3.8 9.6 7.6 13.9 11.8-3.6 0.7-7.1 1.1-10.5 1.2-4.4 0.1-8.8 0-13.2 0.1-5.8-3.9-11.7-7.7-17.7-11.8z"/>
	<path class="s80" d="m256 225c-3.6-4.1-7.3-8.2-10.5-12.7 3.5-0.3 6.7-0.2 9.8-0.3 4.9-0.3 9.8-0.7 14.7-1 4.9 3.8 9.9 7.6 14.5 11.6-8.2 0.4-16.2 0.3-24.1 0.5-1.5 0-2.9 1.2-4.4 1.9z"/>
	<path class="s81" d="m210.9 226c-0.4 5.5-0.9 10.9-2 16.7-7.1 0.3-13.5 0.3-19.9 0.3 1.7-5.7 3.4-11.5 5.5-17.6 5.8 0 11.1 0.3 16.4 0.6z"/>
	<path class="s80" d="m188.9 243.4c6.5-0.4 12.9-0.4 19.7-0.4-0.3 5.2-1.1 10.3-2.5 15.7-7.5-0.1-14.2-0.4-20.9-0.7 1.1-4.7 2.3-9.5 3.7-14.6z"/>
	<path class="s82" d="m185.1 258.4c6.8-0.1 13.5 0.2 20.7 0.6-1.1 4.9-2.7 9.7-4.5 14.8-6.1-0.1-11.8-0.5-18-0.9 0.3-4.6 1-9.4 1.8-14.5z"/>
	<path class="s76" d="m349.9 187.7c-12.4 0.3-24.8 0.4-37.2 0.3-3.3-0.1-6.6-0.9-9.9-0.9-1.8 0-3.6 0.9-5.7 1.7-2.9-1.5-5.5-3.2-8-5.5 2.1-0.7 4.1-1.3 6-1.2 6.8 0.2 13.6 0.7 20.3 0.8 1.5 0 3.1-1.1 4.6-1.7 1.1-0.1 2.1-0.2 3.6 0.1 1.8 0.8 3.1 1.6 4.4 1.6 6.4 0.1 12.8 0 19.2 0 0.9 1.5 1.8 3 2.7 4.8z"/>
	<path class="s74" d="m148.5 246.1c-2.6 2.9-5.2 5.8-8.4 8.6-9.8-0.2-18.8-0.4-27.8-0.7 0.3-2.8 0.7-5.6 1.7-8.8 5.2-0.6 9.6-1 14.1-1.4 1 0.1 2 0.1 3.8 0.4 6 0.8 11.3 1.3 16.6 1.9z"/>
	<path class="s82" d="m256.2 225.3c1.3-1 2.7-2.2 4.2-2.2 7.9-0.2 15.9-0.1 24.3-0.2 3.7 2.8 6.9 5.6 10.2 8.7-7.9 0.4-16 0.3-24.1 0.5-1.8 0-3.6 0.8-5.7 1.7-3.1-2.5-5.9-5.4-8.9-8.5z"/>
	<path class="s81" d="m277.9 208.4c4.3-0.4 8.7-0.3 13.1-0.4 3.4-0.1 6.9-0.5 10.7-0.9 4 3.6 7.6 7.4 10.9 11.5-7 0.7-13.5 1.1-20 1.5-4.8-3.8-9.7-7.6-14.7-11.7z"/>
	<path class="s80" d="m266 174c-8.2-1.1-16.4-2.2-24.5-3.2 11.2-5.7 41.7-5.8 58.1 0.4-0.3 1-0.9 1.7-1.4 1.6-6.3-0.1-12.5-0.5-18.8-0.4-4.5 0-9.4-2.5-13.4 1.6z"/>
	<path class="s80" d="m192.1 163.9c2.2 1.5 4.4 3 6.2 4.8-1.9 0.3-3.6 0.3-5.2 0.3-11.4-0.3-22.8-0.9-34.2-0.9-6.4-0.1-12.7 0.7-19.1 1.1-1.8-1.3-3.7-2.5-6.4-4.3 2.1-1.2 3.5-2 5.5-2.6 2.8 0.7 5 1.6 7.3 1.6 11.1 0.5 22.2 0.8 33.3 0.9 4.2 0.1 8.4-0.6 12.6-0.9z"/>
	<path class="s79" d="m168.9 228c3-5.2 5.9-10.3 9.4-15.7 5 0.4 9.3 1 13.7 1.7-1.8 4.9-3.6 9.7-6 14.5-6.1-0.2-11.6-0.4-17.1-0.5z"/>
	<path class="s82" d="m140 169.4c6.2-0.6 12.5-1.4 18.9-1.3 11.4 0 22.8 0.6 34.2 0.9 1.6 0 3.3 0 5.4 0 1.9 1.3 3.4 2.6 5.7 4.7-6.1 0.4-11.3 0.8-16.9 0.8-1.5-0.8-2.3-1.4-3.2-1.4-7.5-0.3-14.9-0.7-22.4-0.7-5.3 0-10.6 0.4-16 0.7-1.8-1.1-3.6-2.3-5.7-3.7z"/>
	<path class="s82" d="m148.7 245.9c-5.5-0.4-10.8-0.9-16.4-1.7 2.5-4.8 5.3-9.4 8.7-13.8 5.5 0.3 10.4 0.5 15.3 0.7 0.4 6.3-2.9 10.8-7.6 14.8z"/>
	<path class="s81" d="m269.8 210.7c-4.7 0.6-9.6 1-14.5 1.3-3.1 0.1-6.3 0-9.9 0-3-2.8-5.6-5.6-8.1-9.1 2.9-1.1 5.9-1.3 8.8-2 1.7-0.3 3.3-1.2 4.9-1.9 6.2 3.8 12.4 7.6 18.8 11.7z"/>
	<path class="s81" d="m168.7 228.2c5.7-0.1 11.2 0.1 17.1 0.6-0.9 4.8-2 9.3-3.7 13.8-6.4-0.2-12.3-0.4-18.1-0.6 1.5-4.5 2.9-9 4.7-13.8z"/>
	<path class="s82" d="m292.8 220.4c6.3-0.7 12.8-1.1 19.8-1.5 3.3 3.8 6.2 7.7 9.2 11.8-4 0.3-8.1 0.2-12.2 0.4-1.5 0-3 0.8-4.6 1.6-4.1-3.7-8.1-7.8-12.2-12.3z"/>
	<path class="s81" d="m191.9 163.6c-4 0.6-8.2 1.3-12.4 1.2-11.1-0.1-22.2-0.4-33.3-0.9-2.3 0-4.5-0.9-7-1.7 2.9-1.6 5.9-2.9 9.7-3.9 10.2 0.7 19.7 1.3 29.2 1.6 1.3 0 2.6-1.2 3.9-1.8 3.2 1.7 6.5 3.5 9.9 5.5z"/>
	<path class="s80" d="m163.8 242.4c6-0.2 11.9 0 18 0.4-0.5 4.5-1.4 8.6-2.8 12.7-6-0.1-11.5-0.3-17-0.5 0.6-4.1 1.1-8.2 1.8-12.6z"/>
	<path class="s75" d="m131.3 264.1q-9.2 9.7-18.3 19.3-0.8-0.3-1.5-0.6c0-6.4 0-12.8 0.7-19.5 6.8 0.1 12.9 0.4 19.1 0.8z"/>
	<path class="s76" d="m131.6 263.9c-6.5-0.2-12.6-0.5-19.2-0.9-0.4-2.7-0.4-5.4-0.2-8.5 9.1-0.2 18.1 0 27.6 0.4-2.4 3.1-5.2 6-8.2 9z"/>
	<path class="s82" d="m266.3 174.2c3.7-4.3 8.6-1.8 13.1-1.8 6.3-0.1 12.5 0.3 18.8 0.4 0.5 0.1 1.1-0.6 1.7-1.4 4.3 1.4 8.6 3.2 12.6 5.4-7.7 0.5-15.2 0.4-22.8 0.7-3.3 0.1-6.5 1-9.7 1.5-4.5-1.5-8.9-3.1-13.7-4.8z"/>
	<path class="s77" d="m210.9 225.6c-5.3 0.1-10.6-0.2-16.4-0.6 1.7-4.8 3.9-9.7 6.7-14.8 3.7 0.1 6.7 0.5 9.8 0.8 0 4.7 0 9.4-0.1 14.6z"/>
	<path class="s77" d="m157 201c-3.1 3.2-6.2 6.5-10.1 9.9-6.4-0.2-12.2-0.6-17.9-0.9 4.4-4 8.9-7.9 13.9-11.7 2.6 0.7 4.6 1.3 6.6 1.7 2.5 0.4 5 0.7 7.5 1z"/>
	<path class="s82" d="m161.8 255.4c5.7-0.2 11.2 0 17 0.4-0.2 3.7-0.7 7.2-1.5 10.9-5.3 0.3-10.3 0.3-15.8 0.3-0.2-3.7 0-7.5 0.3-11.6z"/>
	<path class="s80" d="m139.1 221c-2.9 4.5-5.7 9-9.1 13.4-4.6-0.5-8.9-1-13.1-1.4 1.5-4.2 3.1-8.4 5.3-12.7 6.1 0.1 11.5 0.4 16.9 0.7z"/>
	<path class="s81" d="m139.3 220.8c-5.6-0.1-11-0.4-16.9-0.8 1.7-3.2 3.9-6.5 6.3-9.9 6 0.2 11.8 0.6 17.9 0.9-2 3.2-4.5 6.5-7.3 9.8z"/>
	<path class="s81" d="m297.2 163.3c1.6-0.8 3.4-1.9 5.3-1.9 6.6-0.1 13.3 0 20.2-0.2q5.8 2.8 10.8 6.5c-4.9 0.4-9.6 0.3-14.3 0.6-1.8 0.1-3.5 1.1-5.2 1.7-5.5-2.1-11.1-4.3-16.8-6.7z"/>
	<path class="s78" d="m309.7 154.7c-4.9 0.6-10.2 1.3-15.4 1.2-9.4-0.1-18.8-0.5-28.2-0.9-1.4-0.1-2.9-0.4-4.7-0.8 9.6-4.9 20.2-4.8 30.8-3.8 5.8 0.6 11.5 2.7 17.5 4.3z"/>
	<path class="s80" d="m156.6 231c-5.2-0.1-10.1-0.3-15.4-0.8 2.6-4.2 5.4-8 8.9-12.1 4.5 0.2 8.3 0.6 12 0.9-1.7 3.9-3.4 7.9-5.5 12z"/>
	<path class="s78" d="m192.3 213.8c-4.7-0.5-9-1.1-13.8-1.8 8.7-11.8 15.9-17.1 22.4-16.4-2.8 6.1-5.6 12-8.6 18.2z"/>
	<path class="s78" d="m157.3 200.9c-2.8-0.2-5.3-0.5-7.8-0.9-2-0.4-4-1-6.2-1.7 10.5-7.8 24.7-12.1 28.9-8.6-4.9 3.7-9.7 7.4-14.9 11.2z"/>
	<path class="s77" d="m250.8 198.7c-1.4 1-3 1.9-4.7 2.2-2.9 0.7-5.9 0.9-9 1.7-3.5-3.8-6.9-8-10.1-12.4-0.6-0.7-0.3-2-0.3-3.1 1.2 0 2.6-0.4 3.5 0.1 6.9 3.7 13.6 7.5 20.6 11.5z"/>
	<path class="s76" d="m146 173.4c5.1-0.6 10.4-1 15.7-1 7.5 0 14.9 0.4 22.4 0.7 0.9 0 1.7 0.6 2.7 1.4-6.5 1.4-13.5 1.6-19.7 3.9-8.5 3.1-14.6-0.4-21.1-5z"/>
	<path class="s80" d="m314.2 170.3c1.5-0.9 3.2-1.9 5-2 4.7-0.3 9.4-0.2 14.5-0.3 3.3 2.7 6.3 5.5 8.9 8.6-6.4 0.4-12.5 0.4-18.5 0.5-3.2-2.2-6.4-4.4-9.9-6.8z"/>
	<path class="s74" d="m280.2 179.3c3-0.8 6.2-1.7 9.5-1.8 7.6-0.3 15.1-0.2 23.1-0.4 2.5 1.1 4.5 2.4 6.9 3.9-1.2 0.8-2.8 1.9-4.3 1.9-6.7-0.1-13.5-0.6-20.3-0.8-1.9-0.1-3.9 0.5-6.2 1-3.1-1.1-5.8-2.3-8.7-3.8z"/>
	<path class="s81" d="m229 141c2.1-1.9 4.2-3.8 7.1-5.8 7.2 0.1 13.8 0.3 20.3 0.9 1.9 0.1 3.7 1.2 5.6 1.9-0.8 1.6-1.6 3.1-3 4.6-10.4-0.6-20.2-1.1-30-1.6z"/>
	<path class="s80" d="m228.7 141.2c10.1 0.3 19.9 0.8 30.1 1.6-3.5 2.2-7.3 4.2-11.7 5.9-2.3-0.7-3.9-1.6-5.6-1.6-5.5-0.2-11.1-0.1-16.6-0.2 1.2-1.8 2.3-3.7 3.8-5.7z"/>
	<path class="s82" d="m116.7 233.2c4.4 0.2 8.7 0.7 13.1 1.5-0.5 3-1.2 5.8-1.8 8.8-4.4 0.7-8.8 1.1-13.7 1.4 0.4-3.8 1.2-7.6 2.4-11.7z"/>
	<path class="s79" d="m162.3 218.8c-3.9-0.1-7.7-0.5-11.9-0.8 4.4-4.9 9.2-9.8 14.5-14.6 2.4 0.9 4.3 1.8 6.1 2.6-2.8 4.2-5.6 8.4-8.7 12.8z"/>
	<path class="s79" d="m262.3 137.8c-2.2-0.5-4-1.6-5.9-1.7-6.5-0.6-13.1-0.8-20-1.1 3-2.3 6.5-4.5 10.5-6.6 3 0.6 5.3 1.3 7.6 1.6 3.5 0.4 7 0.7 10.5 1-0.8 2.2-1.7 4.4-2.7 6.8z"/>
	<path class="s74" d="m237.3 154.2q-9.2 7-18.4 14.1-0.6-0.2-1.1-0.4c1.2-4.8 2.4-9.6 4.3-14.7 5.6 0.2 10.4 0.6 15.2 1z"/>
	<path class="s82" d="m237.6 154.1c-5.1-0.3-9.9-0.7-15.2-1.1 0.3-1.9 1.1-3.8 2.2-5.8 5.8-0.2 11.4-0.3 16.9-0.1 1.7 0 3.3 0.9 5.2 1.7-2.7 1.9-5.7 3.5-9.1 5.3z"/>
	<path class="s74" d="m324.1 177.4c6-0.4 12.1-0.4 18.5-0.5 1.8 1.8 3.1 3.6 4.5 5.7-6.3 0.3-12.7 0.4-19.1 0.3-1.3 0-2.6-0.8-4-1.7 0-1.4 0.1-2.4 0.1-3.8z"/>
	<path class="s78" d="m265.3 130.8c-3.8-0.1-7.3-0.4-10.8-0.8-2.3-0.3-4.6-1-7.2-1.7 6.2-2.9 12.7-5.4 19.2-8q0.8 0.7 1.6 1.4c-0.9 2.9-1.7 5.9-2.8 9.1z"/>
	<path class="s77" d="m181.7 157.9c-1 0.8-2.3 2-3.6 2-9.5-0.3-19-0.9-28.8-1.7 10.4-4.9 21.2-4.2 32.4-0.3z"/>
	<path class="s78" d="m211 210.6c-3.1 0.1-6.1-0.3-9.6-0.6 1.9-5 4.2-10 6.5-14.9q1 0.1 1.9 0.3c0.4 4.9 0.8 9.8 1.2 15.2z"/>
	<path class="s78" d="m171.3 205.8c-2.1-0.6-4-1.5-6.1-2.6 4.5-5.5 10.7-8.3 16.9-11q0.4 0.5 0.8 0.9c-3.8 4.2-7.6 8.3-11.6 12.7z"/>
	<path class="s60" d="m460.7 219.4c1.1-2.2 2.1-4 3.4-6.1 3.1 1.9 6 4 8.9 6.5-1 2-1.7 4.1-3.2 5.3-3.9 3.2-8.3 0.5-9.1-5.7z"/>
	<path class="s61" d="m503 224.4c3.5 0.6 6.9 1.5 10.6 2.5-0.4 3-1.2 5.8-2.3 8.9-3.3-1.4-6.4-3-9.9-4.7 0.3-2.2 0.9-4.3 1.6-6.7z"/>
	<path class="s61" d="m412.9 153.7c0.4-0.4 0.8-0.7 1.4-1.3 1.8-0.9 3.4-1.7 5.5-2.1 1.7 3.5 3 6.7 4.3 10-2.5 1.4-5 2.9-7.8 4-1.4-3.7-2.4-7.2-3.4-10.6z"/>
	<path class="s54" d="m424.5 160.2c-1.7-3.2-3-6.4-4.4-10 2-1.6 4.1-2.8 6.8-3.9 2.1 3.3 3.6 6.4 5.1 9.5-2.4 1.5-4.8 2.9-7.5 4.4z"/>
	<path class="s45" d="m432.3 155.9c-1.8-3.2-3.3-6.3-5-9.7 2.9-2.8 6.1-3.2 8.9 0 2.9 3.5 1.1 6.5-2.1 9.1-0.7 0.4-1.1 0.5-1.8 0.6z"/>
	<path class="s60" d="m412.5 153.8c1.4 3.3 2.4 6.8 3.5 10.6-1.3 1.1-2.5 1.8-3.8 2.5-5.6 3.1-8.8 1.3-9.4-5.5 3.1-2.8 6.2-5.2 9.7-7.6z"/>
	<path class="s54" d="m439.9 180.9c1-1.1 2-2.2 3.1-3.5 1.3-1.3 2.4-2.2 4.2-3.2 2.7 2.9 4.7 5.8 6.8 8.8-2.1 2-4.1 4.1-6.6 5.9-2.8-2.8-5.2-5.4-7.5-8z"/>
	<path class="s45" d="m454.3 182.9c-2.4-2.9-4.4-5.8-6.8-8.8 1.7-2.9 4.2-4.9 7.9-3.3 3.1 1.4 4.1 4 3.2 7.7-1.5 1.6-2.7 2.9-4.3 4.4z"/>
	<path class="s60" d="m387 128.3c0.2-4.6 3.1-6.4 6.9-7.3 1.7-0.3 3.5-0.8 5.7-0.8 1.1 3.8 1.7 7.2 2.4 10.6q-2.8 0.9-5.6 1.7c-4.2 1.4-7.5 0.6-9.4-4.2z"/>
	<path class="s61" d="m402.4 130.8c-1.1-3.4-1.7-6.8-2.4-10.7-0.1-0.4-0.1-0.7 0-0.9 3.8-1.1 7.5-2 11.7-2.6 1.1 3.8 1.8 7.3 2.4 10.8-3.8 1.1-7.6 2.2-11.7 3.4z"/>
	<path class="s54" d="m414.5 127.3c-1-3.4-1.7-6.9-2.5-10.7 2.5-1.1 5.1-2.6 7.5-2.4 2.4 0.2 4.6 2.1 7.2 3.5 0.6 5.7-3.1 7.4-7.6 8.7-1.5 0.5-2.8 0.7-4.6 0.9z"/>
	<path class="s60" d="m428.5 197.2c-1.5-4.9 1.6-7.5 5.3-10.1 3.1 2.4 5.6 4.8 8.1 7.3-0.9 1-1.8 2-2.8 3.3-3.7 2.8-7.2 3.9-10.6-0.5z"/>
	<path class="s61" d="m442.1 194.2c-2.7-2.3-5.2-4.7-8-7.3 1.5-1.9 3.3-3.8 5.5-5.8 2.6 2.4 5 5 7.5 8-1.5 1.9-3.1 3.4-5 5.1z"/>
</svg>